<?xml version="1.0" encoding="utf-8" standalone="no"?>
<!DOCTYPE svg PUBLIC "-//W3C//DTD SVG 1.1//EN"
  "http://www.w3.org/Graphics/SVG/1.1/DTD/svg11.dtd">
<svg height="345.6pt" version="1.1" viewBox="0 0 460.8 345.6" width="460.8pt" xmlns="http://www.w3.org/2000/svg" xmlns:xlink="http://www.w3.org/1999/xlink">
 <metadata>
  <rdf:RDF xmlns:cc="http://creativecommons.org/ns#" xmlns:dc="http://purl.org/dc/elements/1.1/" xmlns:rdf="http://www.w3.org/1999/02/22-rdf-syntax-ns#">
   <cc:Work>
    <dc:type rdf:resource="http://purl.org/dc/dcmitype/StillImage"/>
    <dc:date>2024-06-02T15:41:55.685760</dc:date>
    <dc:format>image/svg+xml</dc:format>
    <dc:creator>
     <cc:Agent>
      <dc:title>Matplotlib v3.4.3, https://matplotlib.org/</dc:title>
     </cc:Agent>
    </dc:creator>
   </cc:Work>
  </rdf:RDF>
 </metadata>
 <defs>
  <style type="text/css">*{stroke-linecap:butt;stroke-linejoin:round;}</style>
 </defs>
 <g id="figure_1">
  <g id="patch_1">
   <path d="M 0 345.6 
L 460.8 345.6 
L 460.8 0 
L 0 0 
z
" style="fill:#ffffff;"/>
  </g>
  <g id="patch_2">
   <path d="M 103.104 307.584 
L 369.216 307.584 
L 369.216 41.472 
L 103.104 41.472 
z
" style="fill:#ffffff;"/>
  </g>
  <g id="pane3d_1">
   <g id="patch_3">
    <path d="M 123.197291 241.969309 
L 211.076164 168.307495 
L 209.854564 62.073991 
L 117.770234 129.272941 
" style="fill:#f2f2f2;opacity:0.5;stroke:#f2f2f2;stroke-linejoin:miter;"/>
   </g>
  </g>
  <g id="pane3d_2">
   <g id="patch_4">
    <path d="M 211.076164 168.307495 
L 352.090401 209.294766 
L 357.122702 99.402171 
L 209.854564 62.073991 
" style="fill:#e6e6e6;opacity:0.5;stroke:#e6e6e6;stroke-linejoin:miter;"/>
   </g>
  </g>
  <g id="pane3d_3">
   <g id="patch_5">
    <path d="M 123.197291 241.969309 
L 272.679269 290.790123 
L 352.090401 209.294766 
L 211.076164 168.307495 
" style="fill:#ececec;opacity:0.5;stroke:#ececec;stroke-linejoin:miter;"/>
   </g>
  </g>
  <g id="axis3d_1">
   <g id="line2d_1">
    <path d="M 123.197291 241.969309 
L 272.679269 290.790123 
" style="fill:none;stroke:#000000;stroke-linecap:square;stroke-width:0.8;"/>
   </g>
   <g id="text_1">
    <!-- Position x -->
    <g transform="translate(155.993802 296.176284)rotate(-341.912962)scale(0.1 -0.1)">
     <defs>
      <path d="M 1259 4147 
L 1259 2394 
L 2053 2394 
Q 2494 2394 2734 2622 
Q 2975 2850 2975 3272 
Q 2975 3691 2734 3919 
Q 2494 4147 2053 4147 
L 1259 4147 
z
M 628 4666 
L 2053 4666 
Q 2838 4666 3239 4311 
Q 3641 3956 3641 3272 
Q 3641 2581 3239 2228 
Q 2838 1875 2053 1875 
L 1259 1875 
L 1259 0 
L 628 0 
L 628 4666 
z
" id="DejaVuSans-50" transform="scale(0.015625)"/>
      <path d="M 1959 3097 
Q 1497 3097 1228 2736 
Q 959 2375 959 1747 
Q 959 1119 1226 758 
Q 1494 397 1959 397 
Q 2419 397 2687 759 
Q 2956 1122 2956 1747 
Q 2956 2369 2687 2733 
Q 2419 3097 1959 3097 
z
M 1959 3584 
Q 2709 3584 3137 3096 
Q 3566 2609 3566 1747 
Q 3566 888 3137 398 
Q 2709 -91 1959 -91 
Q 1206 -91 779 398 
Q 353 888 353 1747 
Q 353 2609 779 3096 
Q 1206 3584 1959 3584 
z
" id="DejaVuSans-6f" transform="scale(0.015625)"/>
      <path d="M 2834 3397 
L 2834 2853 
Q 2591 2978 2328 3040 
Q 2066 3103 1784 3103 
Q 1356 3103 1142 2972 
Q 928 2841 928 2578 
Q 928 2378 1081 2264 
Q 1234 2150 1697 2047 
L 1894 2003 
Q 2506 1872 2764 1633 
Q 3022 1394 3022 966 
Q 3022 478 2636 193 
Q 2250 -91 1575 -91 
Q 1294 -91 989 -36 
Q 684 19 347 128 
L 347 722 
Q 666 556 975 473 
Q 1284 391 1588 391 
Q 1994 391 2212 530 
Q 2431 669 2431 922 
Q 2431 1156 2273 1281 
Q 2116 1406 1581 1522 
L 1381 1569 
Q 847 1681 609 1914 
Q 372 2147 372 2553 
Q 372 3047 722 3315 
Q 1072 3584 1716 3584 
Q 2034 3584 2315 3537 
Q 2597 3491 2834 3397 
z
" id="DejaVuSans-73" transform="scale(0.015625)"/>
      <path d="M 603 3500 
L 1178 3500 
L 1178 0 
L 603 0 
L 603 3500 
z
M 603 4863 
L 1178 4863 
L 1178 4134 
L 603 4134 
L 603 4863 
z
" id="DejaVuSans-69" transform="scale(0.015625)"/>
      <path d="M 1172 4494 
L 1172 3500 
L 2356 3500 
L 2356 3053 
L 1172 3053 
L 1172 1153 
Q 1172 725 1289 603 
Q 1406 481 1766 481 
L 2356 481 
L 2356 0 
L 1766 0 
Q 1100 0 847 248 
Q 594 497 594 1153 
L 594 3053 
L 172 3053 
L 172 3500 
L 594 3500 
L 594 4494 
L 1172 4494 
z
" id="DejaVuSans-74" transform="scale(0.015625)"/>
      <path d="M 3513 2113 
L 3513 0 
L 2938 0 
L 2938 2094 
Q 2938 2591 2744 2837 
Q 2550 3084 2163 3084 
Q 1697 3084 1428 2787 
Q 1159 2491 1159 1978 
L 1159 0 
L 581 0 
L 581 3500 
L 1159 3500 
L 1159 2956 
Q 1366 3272 1645 3428 
Q 1925 3584 2291 3584 
Q 2894 3584 3203 3211 
Q 3513 2838 3513 2113 
z
" id="DejaVuSans-6e" transform="scale(0.015625)"/>
      <path id="DejaVuSans-20" transform="scale(0.015625)"/>
      <path d="M 3513 3500 
L 2247 1797 
L 3578 0 
L 2900 0 
L 1881 1375 
L 863 0 
L 184 0 
L 1544 1831 
L 300 3500 
L 978 3500 
L 1906 2253 
L 2834 3500 
L 3513 3500 
z
" id="DejaVuSans-78" transform="scale(0.015625)"/>
     </defs>
     <use xlink:href="#DejaVuSans-50"/>
     <use x="56.677734" xlink:href="#DejaVuSans-6f"/>
     <use x="117.859375" xlink:href="#DejaVuSans-73"/>
     <use x="169.958984" xlink:href="#DejaVuSans-69"/>
     <use x="197.742188" xlink:href="#DejaVuSans-74"/>
     <use x="236.951172" xlink:href="#DejaVuSans-69"/>
     <use x="264.734375" xlink:href="#DejaVuSans-6f"/>
     <use x="325.916016" xlink:href="#DejaVuSans-6e"/>
     <use x="389.294922" xlink:href="#DejaVuSans-20"/>
     <use x="421.082031" xlink:href="#DejaVuSans-78"/>
    </g>
   </g>
   <g id="Line3DCollection_1">
    <path d="M 132.250617 244.926125 
L 219.652136 170.800191 
L 218.793134 64.339658 
" style="fill:none;stroke:#b0b0b0;stroke-width:0.8;"/>
    <path d="M 150.693062 250.949428 
L 237.107959 175.87391 
L 236.994088 68.953069 
" style="fill:none;stroke:#b0b0b0;stroke-width:0.8;"/>
    <path d="M 169.382785 257.053491 
L 254.778415 181.010014 
L 255.428522 73.625661 
" style="fill:none;stroke:#b0b0b0;stroke-width:0.8;"/>
    <path d="M 188.324793 263.239951 
L 272.667487 186.209661 
L 274.100957 78.358579 
" style="fill:none;stroke:#b0b0b0;stroke-width:0.8;"/>
    <path d="M 207.524229 269.510487 
L 290.779256 191.474037 
L 293.016031 83.152999 
" style="fill:none;stroke:#b0b0b0;stroke-width:0.8;"/>
    <path d="M 226.986378 275.866824 
L 309.117908 196.804359 
L 312.178506 88.010128 
" style="fill:none;stroke:#b0b0b0;stroke-width:0.8;"/>
    <path d="M 246.716667 282.310737 
L 327.687732 202.201874 
L 331.593267 92.931204 
" style="fill:none;stroke:#b0b0b0;stroke-width:0.8;"/>
    <path d="M 266.720678 288.844047 
L 346.493127 207.66786 
L 351.26533 97.917498 
" style="fill:none;stroke:#b0b0b0;stroke-width:0.8;"/>
   </g>
   <g id="xtick_1">
    <g id="line2d_2">
     <path d="M 133.011704 244.280641 
L 130.725176 246.219864 
" style="fill:none;stroke:#000000;stroke-linecap:square;stroke-width:0.8;"/>
    </g>
    <g id="text_2">
     <!-- 2.50 -->
     <g transform="translate(113.588755 268.235274)scale(0.1 -0.1)">
      <defs>
       <path d="M 1228 531 
L 3431 531 
L 3431 0 
L 469 0 
L 469 531 
Q 828 903 1448 1529 
Q 2069 2156 2228 2338 
Q 2531 2678 2651 2914 
Q 2772 3150 2772 3378 
Q 2772 3750 2511 3984 
Q 2250 4219 1831 4219 
Q 1534 4219 1204 4116 
Q 875 4013 500 3803 
L 500 4441 
Q 881 4594 1212 4672 
Q 1544 4750 1819 4750 
Q 2544 4750 2975 4387 
Q 3406 4025 3406 3419 
Q 3406 3131 3298 2873 
Q 3191 2616 2906 2266 
Q 2828 2175 2409 1742 
Q 1991 1309 1228 531 
z
" id="DejaVuSans-32" transform="scale(0.015625)"/>
       <path d="M 684 794 
L 1344 794 
L 1344 0 
L 684 0 
L 684 794 
z
" id="DejaVuSans-2e" transform="scale(0.015625)"/>
       <path d="M 691 4666 
L 3169 4666 
L 3169 4134 
L 1269 4134 
L 1269 2991 
Q 1406 3038 1543 3061 
Q 1681 3084 1819 3084 
Q 2600 3084 3056 2656 
Q 3513 2228 3513 1497 
Q 3513 744 3044 326 
Q 2575 -91 1722 -91 
Q 1428 -91 1123 -41 
Q 819 9 494 109 
L 494 744 
Q 775 591 1075 516 
Q 1375 441 1709 441 
Q 2250 441 2565 725 
Q 2881 1009 2881 1497 
Q 2881 1984 2565 2268 
Q 2250 2553 1709 2553 
Q 1456 2553 1204 2497 
Q 953 2441 691 2322 
L 691 4666 
z
" id="DejaVuSans-35" transform="scale(0.015625)"/>
       <path d="M 2034 4250 
Q 1547 4250 1301 3770 
Q 1056 3291 1056 2328 
Q 1056 1369 1301 889 
Q 1547 409 2034 409 
Q 2525 409 2770 889 
Q 3016 1369 3016 2328 
Q 3016 3291 2770 3770 
Q 2525 4250 2034 4250 
z
M 2034 4750 
Q 2819 4750 3233 4129 
Q 3647 3509 3647 2328 
Q 3647 1150 3233 529 
Q 2819 -91 2034 -91 
Q 1250 -91 836 529 
Q 422 1150 422 2328 
Q 422 3509 836 4129 
Q 1250 4750 2034 4750 
z
" id="DejaVuSans-30" transform="scale(0.015625)"/>
      </defs>
      <use xlink:href="#DejaVuSans-32"/>
      <use x="63.623047" xlink:href="#DejaVuSans-2e"/>
      <use x="95.410156" xlink:href="#DejaVuSans-35"/>
      <use x="159.033203" xlink:href="#DejaVuSans-30"/>
     </g>
    </g>
   </g>
   <g id="xtick_2">
    <g id="line2d_3">
     <path d="M 151.445965 250.295321 
L 149.184003 252.260467 
" style="fill:none;stroke:#000000;stroke-linecap:square;stroke-width:0.8;"/>
    </g>
    <g id="text_3">
     <!-- 2.55 -->
     <g transform="translate(132.049886 274.386131)scale(0.1 -0.1)">
      <use xlink:href="#DejaVuSans-32"/>
      <use x="63.623047" xlink:href="#DejaVuSans-2e"/>
      <use x="95.410156" xlink:href="#DejaVuSans-35"/>
      <use x="159.033203" xlink:href="#DejaVuSans-35"/>
     </g>
    </g>
   </g>
   <g id="xtick_3">
    <g id="line2d_4">
     <path d="M 170.127215 256.390587 
L 167.890687 258.382181 
" style="fill:none;stroke:#000000;stroke-linecap:square;stroke-width:0.8;"/>
    </g>
    <g id="text_4">
     <!-- 2.60 -->
     <g transform="translate(150.759479 280.619771)scale(0.1 -0.1)">
      <defs>
       <path d="M 2113 2584 
Q 1688 2584 1439 2293 
Q 1191 2003 1191 1497 
Q 1191 994 1439 701 
Q 1688 409 2113 409 
Q 2538 409 2786 701 
Q 3034 994 3034 1497 
Q 3034 2003 2786 2293 
Q 2538 2584 2113 2584 
z
M 3366 4563 
L 3366 3988 
Q 3128 4100 2886 4159 
Q 2644 4219 2406 4219 
Q 1781 4219 1451 3797 
Q 1122 3375 1075 2522 
Q 1259 2794 1537 2939 
Q 1816 3084 2150 3084 
Q 2853 3084 3261 2657 
Q 3669 2231 3669 1497 
Q 3669 778 3244 343 
Q 2819 -91 2113 -91 
Q 1303 -91 875 529 
Q 447 1150 447 2328 
Q 447 3434 972 4092 
Q 1497 4750 2381 4750 
Q 2619 4750 2861 4703 
Q 3103 4656 3366 4563 
z
" id="DejaVuSans-36" transform="scale(0.015625)"/>
      </defs>
      <use xlink:href="#DejaVuSans-32"/>
      <use x="63.623047" xlink:href="#DejaVuSans-2e"/>
      <use x="95.410156" xlink:href="#DejaVuSans-36"/>
      <use x="159.033203" xlink:href="#DejaVuSans-30"/>
     </g>
    </g>
   </g>
   <g id="xtick_4">
    <g id="line2d_5">
     <path d="M 189.060452 262.568072 
L 186.850253 264.58665 
" style="fill:none;stroke:#000000;stroke-linecap:square;stroke-width:0.8;"/>
    </g>
    <g id="text_5">
     <!-- 2.65 -->
     <g transform="translate(169.722584 286.937876)scale(0.1 -0.1)">
      <use xlink:href="#DejaVuSans-32"/>
      <use x="63.623047" xlink:href="#DejaVuSans-2e"/>
      <use x="95.410156" xlink:href="#DejaVuSans-36"/>
      <use x="159.033203" xlink:href="#DejaVuSans-35"/>
     </g>
    </g>
   </g>
   <g id="xtick_5">
    <g id="line2d_6">
     <path d="M 208.25081 268.829449 
L 206.067865 270.875564 
" style="fill:none;stroke:#000000;stroke-linecap:square;stroke-width:0.8;"/>
    </g>
    <g id="text_6">
     <!-- 2.70 -->
     <g transform="translate(188.944387 293.342173)scale(0.1 -0.1)">
      <defs>
       <path d="M 525 4666 
L 3525 4666 
L 3525 4397 
L 1831 0 
L 1172 0 
L 2766 4134 
L 525 4134 
L 525 4666 
z
" id="DejaVuSans-37" transform="scale(0.015625)"/>
      </defs>
      <use xlink:href="#DejaVuSans-32"/>
      <use x="63.623047" xlink:href="#DejaVuSans-2e"/>
      <use x="95.410156" xlink:href="#DejaVuSans-37"/>
      <use x="159.033203" xlink:href="#DejaVuSans-30"/>
     </g>
    </g>
   </g>
   <g id="xtick_6">
    <g id="line2d_7">
     <path d="M 227.703562 275.17644 
L 225.548826 277.250658 
" style="fill:none;stroke:#000000;stroke-linecap:square;stroke-width:0.8;"/>
    </g>
    <g id="text_7">
     <!-- 2.75 -->
     <g transform="translate(208.43022 299.83444)scale(0.1 -0.1)">
      <use xlink:href="#DejaVuSans-32"/>
      <use x="63.623047" xlink:href="#DejaVuSans-2e"/>
      <use x="95.410156" xlink:href="#DejaVuSans-37"/>
      <use x="159.033203" xlink:href="#DejaVuSans-35"/>
     </g>
    </g>
   </g>
   <g id="xtick_7">
    <g id="line2d_8">
     <path d="M 247.424126 281.610811 
L 245.298588 283.713716 
" style="fill:none;stroke:#000000;stroke-linecap:square;stroke-width:0.8;"/>
    </g>
    <g id="text_8">
     <!-- 2.80 -->
     <g transform="translate(228.185559 306.4165)scale(0.1 -0.1)">
      <defs>
       <path d="M 2034 2216 
Q 1584 2216 1326 1975 
Q 1069 1734 1069 1313 
Q 1069 891 1326 650 
Q 1584 409 2034 409 
Q 2484 409 2743 651 
Q 3003 894 3003 1313 
Q 3003 1734 2745 1975 
Q 2488 2216 2034 2216 
z
M 1403 2484 
Q 997 2584 770 2862 
Q 544 3141 544 3541 
Q 544 4100 942 4425 
Q 1341 4750 2034 4750 
Q 2731 4750 3128 4425 
Q 3525 4100 3525 3541 
Q 3525 3141 3298 2862 
Q 3072 2584 2669 2484 
Q 3125 2378 3379 2068 
Q 3634 1759 3634 1313 
Q 3634 634 3220 271 
Q 2806 -91 2034 -91 
Q 1263 -91 848 271 
Q 434 634 434 1313 
Q 434 1759 690 2068 
Q 947 2378 1403 2484 
z
M 1172 3481 
Q 1172 3119 1398 2916 
Q 1625 2713 2034 2713 
Q 2441 2713 2670 2916 
Q 2900 3119 2900 3481 
Q 2900 3844 2670 4047 
Q 2441 4250 2034 4250 
Q 1625 4250 1398 4047 
Q 1172 3844 1172 3481 
z
" id="DejaVuSans-38" transform="scale(0.015625)"/>
      </defs>
      <use xlink:href="#DejaVuSans-32"/>
      <use x="63.623047" xlink:href="#DejaVuSans-2e"/>
      <use x="95.410156" xlink:href="#DejaVuSans-38"/>
      <use x="159.033203" xlink:href="#DejaVuSans-30"/>
     </g>
    </g>
   </g>
   <g id="xtick_8">
    <g id="line2d_9">
     <path d="M 267.418072 288.134381 
L 265.322752 290.266572 
" style="fill:none;stroke:#000000;stroke-linecap:square;stroke-width:0.8;"/>
    </g>
    <g id="text_9">
     <!-- 2.85 -->
     <g transform="translate(248.216036 313.090231)scale(0.1 -0.1)">
      <use xlink:href="#DejaVuSans-32"/>
      <use x="63.623047" xlink:href="#DejaVuSans-2e"/>
      <use x="95.410156" xlink:href="#DejaVuSans-38"/>
      <use x="159.033203" xlink:href="#DejaVuSans-35"/>
     </g>
    </g>
   </g>
  </g>
  <g id="axis3d_2">
   <g id="line2d_10">
    <path d="M 352.090401 209.294766 
L 272.679269 290.790123 
" style="fill:none;stroke:#000000;stroke-linecap:square;stroke-width:0.8;"/>
   </g>
   <g id="text_10">
    <!-- Position y -->
    <g transform="translate(326.351001 295.352953)rotate(-45.742112)scale(0.1 -0.1)">
     <defs>
      <path d="M 2059 -325 
Q 1816 -950 1584 -1140 
Q 1353 -1331 966 -1331 
L 506 -1331 
L 506 -850 
L 844 -850 
Q 1081 -850 1212 -737 
Q 1344 -625 1503 -206 
L 1606 56 
L 191 3500 
L 800 3500 
L 1894 763 
L 2988 3500 
L 3597 3500 
L 2059 -325 
z
" id="DejaVuSans-79" transform="scale(0.015625)"/>
     </defs>
     <use xlink:href="#DejaVuSans-50"/>
     <use x="56.677734" xlink:href="#DejaVuSans-6f"/>
     <use x="117.859375" xlink:href="#DejaVuSans-73"/>
     <use x="169.958984" xlink:href="#DejaVuSans-69"/>
     <use x="197.742188" xlink:href="#DejaVuSans-74"/>
     <use x="236.951172" xlink:href="#DejaVuSans-69"/>
     <use x="264.734375" xlink:href="#DejaVuSans-6f"/>
     <use x="325.916016" xlink:href="#DejaVuSans-6e"/>
     <use x="389.294922" xlink:href="#DejaVuSans-20"/>
     <use x="421.082031" xlink:href="#DejaVuSans-79"/>
    </g>
   </g>
   <g id="Line3DCollection_2">
    <path d="M 132.750183 118.341256 
L 137.447717 230.024319 
L 285.604273 277.525889 
" style="fill:none;stroke:#b0b0b0;stroke-width:0.8;"/>
    <path d="M 149.566655 106.069361 
L 153.46619 216.597318 
L 300.110769 262.638655 
" style="fill:none;stroke:#b0b0b0;stroke-width:0.8;"/>
    <path d="M 165.860782 94.178649 
L 169.008297 203.569615 
L 314.163549 248.217046 
" style="fill:none;stroke:#b0b0b0;stroke-width:0.8;"/>
    <path d="M 181.656528 82.651633 
L 184.094978 190.923661 
L 327.78357 234.239554 
" style="fill:none;stroke:#b0b0b0;stroke-width:0.8;"/>
    <path d="M 196.976415 71.471877 
L 198.74596 178.642917 
L 340.990521 220.685973 
" style="fill:none;stroke:#b0b0b0;stroke-width:0.8;"/>
   </g>
   <g id="xtick_9">
    <g id="line2d_11">
     <path d="M 284.356263 277.125756 
L 288.103493 278.327183 
" style="fill:none;stroke:#000000;stroke-linecap:square;stroke-width:0.8;"/>
    </g>
    <g id="text_11">
     <!-- −0.2 -->
     <g transform="translate(286.243883 298.434677)scale(0.1 -0.1)">
      <defs>
       <path d="M 678 2272 
L 4684 2272 
L 4684 1741 
L 678 1741 
L 678 2272 
z
" id="DejaVuSans-2212" transform="scale(0.015625)"/>
      </defs>
      <use xlink:href="#DejaVuSans-2212"/>
      <use x="83.789062" xlink:href="#DejaVuSans-30"/>
      <use x="147.412109" xlink:href="#DejaVuSans-2e"/>
      <use x="179.199219" xlink:href="#DejaVuSans-32"/>
     </g>
    </g>
   </g>
   <g id="xtick_10">
    <g id="line2d_12">
     <path d="M 298.876483 262.251132 
L 302.582458 263.41468 
" style="fill:none;stroke:#000000;stroke-linecap:square;stroke-width:0.8;"/>
    </g>
    <g id="text_12">
     <!-- −0.1 -->
     <g transform="translate(300.55569 283.327158)scale(0.1 -0.1)">
      <defs>
       <path d="M 794 531 
L 1825 531 
L 1825 4091 
L 703 3866 
L 703 4441 
L 1819 4666 
L 2450 4666 
L 2450 531 
L 3481 531 
L 3481 0 
L 794 0 
L 794 531 
z
" id="DejaVuSans-31" transform="scale(0.015625)"/>
      </defs>
      <use xlink:href="#DejaVuSans-2212"/>
      <use x="83.789062" xlink:href="#DejaVuSans-30"/>
      <use x="147.412109" xlink:href="#DejaVuSans-2e"/>
      <use x="179.199219" xlink:href="#DejaVuSans-31"/>
     </g>
    </g>
   </g>
   <g id="xtick_11">
    <g id="line2d_13">
     <path d="M 312.942744 247.841546 
L 316.608193 248.96898 
" style="fill:none;stroke:#000000;stroke-linecap:square;stroke-width:0.8;"/>
    </g>
    <g id="text_13">
     <!-- 0.0 -->
     <g transform="translate(318.609455 268.692426)scale(0.1 -0.1)">
      <use xlink:href="#DejaVuSans-30"/>
      <use x="63.623047" xlink:href="#DejaVuSans-2e"/>
      <use x="95.410156" xlink:href="#DejaVuSans-30"/>
     </g>
    </g>
   </g>
   <g id="xtick_12">
    <g id="line2d_14">
     <path d="M 326.576008 233.875526 
L 330.20165 234.9685 
" style="fill:none;stroke:#000000;stroke-linecap:square;stroke-width:0.8;"/>
    </g>
    <g id="text_14">
     <!-- 0.1 -->
     <g transform="translate(332.046193 254.508629)scale(0.1 -0.1)">
      <use xlink:href="#DejaVuSans-30"/>
      <use x="63.623047" xlink:href="#DejaVuSans-2e"/>
      <use x="95.410156" xlink:href="#DejaVuSans-31"/>
     </g>
    </g>
   </g>
   <g id="xtick_13">
    <g id="line2d_15">
     <path d="M 339.795965 220.3329 
L 343.382511 221.392971 
" style="fill:none;stroke:#000000;stroke-linecap:square;stroke-width:0.8;"/>
    </g>
    <g id="text_15">
     <!-- 0.2 -->
     <g transform="translate(345.075191 240.755242)scale(0.1 -0.1)">
      <use xlink:href="#DejaVuSans-30"/>
      <use x="63.623047" xlink:href="#DejaVuSans-2e"/>
      <use x="95.410156" xlink:href="#DejaVuSans-32"/>
     </g>
    </g>
   </g>
  </g>
  <g id="axis3d_3">
   <g id="line2d_16">
    <path d="M 352.090401 209.294766 
L 357.122702 99.402171 
" style="fill:none;stroke:#000000;stroke-linecap:square;stroke-width:0.8;"/>
   </g>
   <g id="text_16">
    <!-- Position z -->
    <g transform="translate(396.600597 173.921688)rotate(-87.378092)scale(0.1 -0.1)">
     <defs>
      <path d="M 353 3500 
L 3084 3500 
L 3084 2975 
L 922 459 
L 3084 459 
L 3084 0 
L 275 0 
L 275 525 
L 2438 3041 
L 353 3041 
L 353 3500 
z
" id="DejaVuSans-7a" transform="scale(0.015625)"/>
     </defs>
     <use xlink:href="#DejaVuSans-50"/>
     <use x="56.677734" xlink:href="#DejaVuSans-6f"/>
     <use x="117.859375" xlink:href="#DejaVuSans-73"/>
     <use x="169.958984" xlink:href="#DejaVuSans-69"/>
     <use x="197.742188" xlink:href="#DejaVuSans-74"/>
     <use x="236.951172" xlink:href="#DejaVuSans-69"/>
     <use x="264.734375" xlink:href="#DejaVuSans-6f"/>
     <use x="325.916016" xlink:href="#DejaVuSans-6e"/>
     <use x="389.294922" xlink:href="#DejaVuSans-20"/>
     <use x="421.082031" xlink:href="#DejaVuSans-7a"/>
    </g>
   </g>
   <g id="Line3DCollection_3">
    <path d="M 352.646475 197.151519 
L 210.940923 156.54652 
L 122.598494 229.534907 
" style="fill:none;stroke:#b0b0b0;stroke-width:0.8;"/>
    <path d="M 353.736292 173.35271 
L 210.676053 133.512823 
L 121.424302 205.152046 
" style="fill:none;stroke:#b0b0b0;stroke-width:0.8;"/>
    <path d="M 354.847355 149.089926 
L 210.40627 110.051746 
L 120.226336 180.27549 
" style="fill:none;stroke:#b0b0b0;stroke-width:0.8;"/>
    <path d="M 355.980293 124.349465 
L 210.131434 86.151284 
L 119.003865 154.890093 
" style="fill:none;stroke:#b0b0b0;stroke-width:0.8;"/>
   </g>
   <g id="xtick_14">
    <g id="line2d_17">
     <path d="M 351.4569 196.810652 
L 355.028469 197.834067 
" style="fill:none;stroke:#000000;stroke-linecap:square;stroke-width:0.8;"/>
    </g>
    <g id="text_17">
     <!-- 3.60 -->
     <g transform="translate(359.850688 202.16869)scale(0.1 -0.1)">
      <defs>
       <path d="M 2597 2516 
Q 3050 2419 3304 2112 
Q 3559 1806 3559 1356 
Q 3559 666 3084 287 
Q 2609 -91 1734 -91 
Q 1441 -91 1130 -33 
Q 819 25 488 141 
L 488 750 
Q 750 597 1062 519 
Q 1375 441 1716 441 
Q 2309 441 2620 675 
Q 2931 909 2931 1356 
Q 2931 1769 2642 2001 
Q 2353 2234 1838 2234 
L 1294 2234 
L 1294 2753 
L 1863 2753 
Q 2328 2753 2575 2939 
Q 2822 3125 2822 3475 
Q 2822 3834 2567 4026 
Q 2313 4219 1838 4219 
Q 1578 4219 1281 4162 
Q 984 4106 628 3988 
L 628 4550 
Q 988 4650 1302 4700 
Q 1616 4750 1894 4750 
Q 2613 4750 3031 4423 
Q 3450 4097 3450 3541 
Q 3450 3153 3228 2886 
Q 3006 2619 2597 2516 
z
" id="DejaVuSans-33" transform="scale(0.015625)"/>
      </defs>
      <use xlink:href="#DejaVuSans-33"/>
      <use x="63.623047" xlink:href="#DejaVuSans-2e"/>
      <use x="95.410156" xlink:href="#DejaVuSans-36"/>
      <use x="159.033203" xlink:href="#DejaVuSans-30"/>
     </g>
    </g>
   </g>
   <g id="xtick_15">
    <g id="line2d_18">
     <path d="M 352.534799 173.018114 
L 356.142176 174.022708 
" style="fill:none;stroke:#000000;stroke-linecap:square;stroke-width:0.8;"/>
    </g>
    <g id="text_18">
     <!-- 3.65 -->
     <g transform="translate(361.113672 178.417435)scale(0.1 -0.1)">
      <use xlink:href="#DejaVuSans-33"/>
      <use x="63.623047" xlink:href="#DejaVuSans-2e"/>
      <use x="95.410156" xlink:href="#DejaVuSans-36"/>
      <use x="159.033203" xlink:href="#DejaVuSans-35"/>
     </g>
    </g>
   </g>
   <g id="xtick_16">
    <g id="line2d_19">
     <path d="M 353.633705 148.761912 
L 357.277613 149.746753 
" style="fill:none;stroke:#000000;stroke-linecap:square;stroke-width:0.8;"/>
    </g>
    <g id="text_19">
     <!-- 3.70 -->
     <g transform="translate(362.401204 154.204553)scale(0.1 -0.1)">
      <use xlink:href="#DejaVuSans-33"/>
      <use x="63.623047" xlink:href="#DejaVuSans-2e"/>
      <use x="95.410156" xlink:href="#DejaVuSans-37"/>
      <use x="159.033203" xlink:href="#DejaVuSans-30"/>
     </g>
    </g>
   </g>
   <g id="xtick_17">
    <g id="line2d_20">
     <path d="M 354.754236 124.028357 
L 358.435422 124.992469 
" style="fill:none;stroke:#000000;stroke-linecap:square;stroke-width:0.8;"/>
    </g>
    <g id="text_20">
     <!-- 3.75 -->
     <g transform="translate(363.714005 129.516455)scale(0.1 -0.1)">
      <use xlink:href="#DejaVuSans-33"/>
      <use x="63.623047" xlink:href="#DejaVuSans-2e"/>
      <use x="95.410156" xlink:href="#DejaVuSans-37"/>
      <use x="159.033203" xlink:href="#DejaVuSans-35"/>
     </g>
    </g>
   </g>
  </g>
  <g id="axes_1">
   <g id="line2d_21">
    <path clip-path="url(#pe812097a6e)" d="M 213.552258 79.839896 
L 218.978268 79.205464 
L 224.205328 83.552848 
L 230.138875 87.726836 
L 243.435103 96.246449 
L 250.194587 100.301623 
L 277.999352 116.375881 
L 285.434238 120.868064 
L 293.155962 125.366254 
L 307.234368 132.744091 
L 307.998776 133.293058 
L 307.962922 133.325592 
L 307.842621 133.525952 
L 307.822901 133.444129 
L 308.13298 133.563211 
L 308.393719 133.468137 
L 307.860426 133.60722 
L 307.758139 133.435909 
L 307.902678 133.408993 
L 307.576263 133.464704 
L 307.42887 133.304011 
L 307.560829 132.57799 
L 307.684754 137.255378 
L 307.64603 150.434824 
L 307.477914 155.417923 
L 307.16851 157.349366 
L 307.545315 158.639373 
L 307.187508 158.668079 
L 307.692395 158.960625 
L 307.648407 159.129321 
L 307.503963 159.171035 
L 307.082192 159.089325 
L 303.502038 157.83383 
L 292.192859 153.732255 
L 281.760751 150.093152 
L 262.172252 141.969573 
L 253.66891 138.162404 
L 237.626687 131.329115 
L 229.234284 129.068557 
L 227.745899 132.559982 
L 227.012417 141.521442 
L 226.363213 147.874338 
L 225.783966 152.046169 
L 225.164771 153.729907 
L 225.23978 153.708825 
L 225.129536 153.638678 
L 224.882112 153.544787 
L 225.05832 153.513378 
L 225.22468 153.504809 
L 225.396091 153.56582 
L 225.396091 153.56582 
" style="fill:none;stroke:#ff0000;stroke-linecap:square;"/>
   </g>
   <g id="line2d_22">
    <path clip-path="url(#pe812097a6e)" d="M 134.0723 139.491742 
L 141.872355 139.60136 
L 152.052573 143.621565 
L 161.463478 147.58126 
L 171.606442 151.355413 
L 182.628545 154.781293 
L 203.796128 161.754079 
L 214.824206 165.059604 
L 237.925866 171.608176 
L 249.138881 174.706088 
L 266.788908 179.80899 
L 270.194013 180.757229 
L 271.480477 181.274834 
L 271.868404 183.01971 
L 272.07312 193.29347 
L 271.998493 232.915504 
L 271.658743 255.806079 
L 271.399251 260.845864 
L 271.408668 264.34581 
L 271.212031 264.391997 
L 271.300094 253.567088 
L 272.570538 213.002389 
L 272.756158 199.306391 
L 272.779008 189.352301 
L 273.130759 184.089079 
L 274.555842 181.477262 
L 285.801949 167.46664 
L 291.489518 159.84923 
L 292.3159 158.897623 
L 292.623989 158.811347 
L 293.190359 156.791614 
L 293.730459 148.249532 
L 294.582643 147.393451 
L 293.746492 157.674609 
L 293.815191 159.97732 
L 294.016467 155.50039 
L 294.204122 142.151389 
L 294.161618 139.835776 
L 294.384521 138.699405 
L 293.631203 136.281447 
L 293.340164 136.019696 
L 293.515237 136.019241 
L 293.746319 136.164676 
L 293.410487 136.166161 
L 292.60286 135.942885 
L 292.624289 135.953582 
" style="fill:none;stroke:#00ff00;stroke-linecap:square;"/>
   </g>
   <g id="line2d_23">
    <path clip-path="url(#pe812097a6e)" d="M 213.552258 79.839896 
L 218.978268 79.205464 
L 225.045807 84.045553 
L 231.618354 88.435528 
L 238.363754 92.651474 
L 251.364364 100.46117 
L 258.715343 104.678985 
L 265.118426 108.56065 
L 273.33975 113.087611 
L 279.756754 117.063426 
L 296.432765 126.609051 
L 302.781428 129.916822 
L 306.179713 131.561613 
L 307.277163 132.374659 
L 308.277331 133.266691 
L 309.270013 133.610453 
L 308.976466 133.588205 
L 309.043752 133.397606 
L 309.022672 133.473503 
L 308.505497 133.957795 
L 308.416671 133.969314 
L 308.969876 134.221424 
L 308.781692 133.738808 
L 308.750562 133.808261 
L 308.941792 133.615954 
L 308.70834 133.933321 
L 308.420167 133.733251 
L 307.97767 133.699273 
L 308.009593 133.527975 
L 308.135362 133.584381 
L 308.095709 133.612653 
L 307.399654 133.656973 
L 307.295304 132.958423 
L 306.796554 132.599715 
L 303.551673 134.965553 
L 305.065263 137.566767 
L 305.369278 141.547655 
L 307.286928 143.061357 
L 307.630862 143.664492 
L 308.16615 144.360032 
L 308.066901 146.314946 
L 308.223026 148.112042 
L 304.500622 151.349338 
L 303.152413 151.789729 
L 302.122799 151.105397 
L 299.944696 149.967837 
L 296.913983 148.554019 
L 291.533768 146.426885 
L 279.237138 142.708428 
L 274.283636 144.223948 
L 268.155854 150.657348 
L 272.305 148.418586 
L 271.439286 148.496996 
L 274.373074 148.397692 
L 274.877042 147.725474 
L 272.799326 148.356387 
L 273.075236 149.434663 
L 272.505831 151.16176 
L 272.440006 152.103393 
L 271.779615 153.248895 
L 270.747932 153.287981 
L 271.409441 153.040868 
L 273.60944 152.403701 
L 273.951048 152.173896 
L 271.961338 152.988451 
L 269.626514 153.109308 
L 269.024229 152.992007 
L 268.828803 153.838833 
L 265.679204 154.314382 
L 257.841272 155.297495 
L 262.86833 140.678147 
L 265.993845 142.045639 
L 266.603142 142.691427 
L 266.711295 143.035485 
L 267.621823 146.859519 
L 268.449166 148.280155 
L 270.689549 151.796575 
L 270.794681 151.372843 
L 269.880477 152.054833 
L 267.757049 153.866476 
L 266.443308 157.812101 
L 264.693431 158.503502 
L 266.573825 156.249836 
L 268.514409 155.370304 
L 266.390525 157.234054 
L 263.728898 157.88352 
L 261.559167 157.271538 
L 260.45167 157.32479 
L 256.522773 157.85078 
L 249.590235 158.320719 
L 251.023866 137.26485 
L 252.533392 140.001956 
L 253.011102 142.716677 
L 253.270599 145.984843 
L 256.031726 152.052677 
L 257.170196 153.519856 
L 258.036144 154.933961 
L 259.056381 156.105875 
L 258.984031 156.960652 
L 256.966065 156.944707 
L 255.695425 157.60312 
L 253.565711 158.257743 
L 255.073224 158.327569 
L 258.033821 158.735896 
L 255.929643 159.521288 
L 254.474275 159.129196 
L 253.009199 157.99398 
L 251.466042 158.71755 
L 247.736963 158.531893 
L 241.585914 157.945231 
L 245.053128 133.986807 
L 250.002909 138.255854 
L 250.375873 140.440215 
L 257.04346 147.955701 
L 261.234577 151.160918 
L 261.494195 152.217953 
L 260.343252 152.472744 
L 256.47928 153.585041 
L 258.057346 152.01071 
L 261.975211 152.285359 
L 260.210158 153.351632 
L 258.751535 152.293082 
L 257.955338 150.217352 
L 257.862184 151.814083 
L 255.74305 152.298443 
L 249.107846 153.47191 
L 259.671415 140.044006 
L 263.57036 141.100427 
L 266.173149 140.94415 
L 265.820693 139.985198 
L 269.943533 142.192739 
L 270.502 144.09313 
L 273.961411 146.241698 
L 273.308286 145.687934 
L 273.812668 145.611727 
L 272.534267 146.376969 
L 272.534267 146.376969 
" style="fill:none;stroke:#0000ff;stroke-linecap:square;"/>
   </g>
   <g id="line2d_24">
    <path clip-path="url(#pe812097a6e)" d="M 134.0723 139.491742 
L 141.872358 139.601358 
L 152.672262 142.90443 
L 185.785245 154.659108 
L 196.075018 157.617898 
L 207.952553 161.372989 
L 218.190678 164.792056 
L 230.244783 168.649738 
L 240.664318 171.787939 
L 253.091055 175.192068 
L 264.102846 177.815285 
L 272.809738 179.576985 
L 273.563044 180.013107 
L 273.931924 182.081318 
L 274.430541 194.547673 
L 274.017653 207.606157 
L 273.905669 220.489141 
L 274.041126 231.817245 
L 273.311318 245.406339 
L 273.02891 254.667597 
L 272.356691 259.152931 
L 271.385645 257.933416 
L 271.572345 258.639148 
L 273.195923 246.265358 
L 273.279267 230.97087 
L 274.082417 219.358042 
L 274.352707 209.156257 
L 274.180315 196.660585 
L 273.856893 185.847621 
L 274.705558 182.142636 
L 280.526342 174.550277 
L 284.271437 169.891463 
L 287.137702 165.494579 
L 289.734289 161.932431 
L 291.650451 159.614886 
L 292.386334 159.019307 
L 293.108038 157.454214 
L 291.886793 171.047784 
L 292.604774 174.70749 
L 294.833746 178.50648 
L 295.299703 181.674377 
L 294.913102 185.246757 
L 295.306333 184.461737 
L 295.353707 180.920056 
L 295.984511 171.89382 
L 296.111976 163.825625 
L 296.399411 158.144356 
L 296.20311 152.932193 
L 295.949499 150.039354 
L 295.551764 149.344437 
L 295.613593 148.154333 
L 295.325926 147.147487 
L 296.503612 143.693142 
L 297.255543 144.053682 
L 297.903742 143.264905 
L 297.881643 141.741807 
L 290.643885 146.276866 
L 294.588598 146.389565 
L 296.023393 147.09065 
L 297.04147 147.338934 
L 297.680596 148.396309 
L 298.273141 150.749189 
L 298.586647 153.473795 
L 299.53202 157.615955 
L 299.84751 156.835566 
L 299.925633 151.878464 
L 299.964133 152.420396 
L 299.93797 151.462717 
L 299.94593 149.920463 
L 299.54937 147.59638 
L 299.587212 145.899807 
L 299.944483 143.108676 
L 295.100737 141.107883 
L 296.86024 141.403275 
L 297.459095 142.527376 
L 298.126926 142.584285 
L 299.028941 143.256935 
L 299.289507 143.70157 
L 299.69996 144.93321 
L 299.99647 146.188592 
L 299.759103 147.009343 
L 299.207481 147.883239 
L 299.401268 147.517449 
L 300.632043 147.73593 
L 300.997962 149.541306 
L 301.042222 148.972851 
L 300.946458 147.913966 
L 300.818279 147.778385 
L 300.959261 147.694146 
L 300.865578 145.526004 
L 301.110891 142.981548 
L 294.428932 141.416549 
L 296.481644 141.554653 
L 297.633345 143.554594 
L 298.279612 144.275523 
L 299.06657 144.424648 
L 298.669362 146.000799 
L 298.181454 147.376179 
L 297.546365 149.620378 
L 297.345273 149.913575 
L 297.534864 149.996301 
L 298.7599 150.116855 
L 299.262337 151.85869 
L 299.097573 151.93094 
L 299.830131 150.595948 
L 299.128565 149.498872 
L 299.183915 148.203671 
L 298.949962 146.061721 
L 299.014785 143.524566 
L 282.341829 143.534603 
L 285.568485 144.624048 
L 289.013932 146.75581 
L 291.330843 145.9864 
L 294.173578 145.921056 
L 295.365667 146.978541 
L 296.02014 148.458194 
L 296.114364 151.774642 
L 296.418418 152.12382 
L 298.338088 152.408248 
L 298.812185 154.593068 
L 299.315683 154.537818 
L 299.28157 154.272015 
L 298.477844 154.394889 
L 298.544131 153.105794 
L 299.030874 151.280749 
L 298.705891 148.867518 
L 299.114367 144.861274 
L 290.043855 144.351568 
L 292.638424 145.081445 
L 292.728231 147.362596 
L 293.330324 147.366566 
L 295.631076 148.288488 
L 295.988267 149.24325 
L 295.874704 151.101224 
L 296.261155 152.882891 
L 296.208238 154.164255 
L 296.452256 155.182804 
L 296.452256 155.182804 
" style="fill:none;stroke:#000000;stroke-linecap:square;"/>
   </g>
   <g id="legend_1">
    <g id="patch_6">
     <path d="M 258.920687 108.1845 
L 362.216 108.1845 
Q 364.216 108.1845 364.216 106.1845 
L 364.216 48.472 
Q 364.216 46.472 362.216 46.472 
L 258.920687 46.472 
Q 256.920687 46.472 256.920687 48.472 
L 256.920687 106.1845 
Q 256.920687 108.1845 258.920687 108.1845 
z
" style="fill:#ffffff;opacity:0.8;stroke:#cccccc;stroke-linejoin:miter;"/>
    </g>
    <g id="line2d_25">
     <path d="M 260.920687 54.570438 
L 280.920687 54.570438 
" style="fill:none;stroke:#ff0000;stroke-linecap:square;"/>
    </g>
    <g id="line2d_26"/>
    <g id="text_21">
     <!-- with TE (left) -->
     <g transform="translate(288.920687 58.070438)scale(0.1 -0.1)">
      <defs>
       <path d="M 269 3500 
L 844 3500 
L 1563 769 
L 2278 3500 
L 2956 3500 
L 3675 769 
L 4391 3500 
L 4966 3500 
L 4050 0 
L 3372 0 
L 2619 2869 
L 1863 0 
L 1184 0 
L 269 3500 
z
" id="DejaVuSans-77" transform="scale(0.015625)"/>
       <path d="M 3513 2113 
L 3513 0 
L 2938 0 
L 2938 2094 
Q 2938 2591 2744 2837 
Q 2550 3084 2163 3084 
Q 1697 3084 1428 2787 
Q 1159 2491 1159 1978 
L 1159 0 
L 581 0 
L 581 4863 
L 1159 4863 
L 1159 2956 
Q 1366 3272 1645 3428 
Q 1925 3584 2291 3584 
Q 2894 3584 3203 3211 
Q 3513 2838 3513 2113 
z
" id="DejaVuSans-68" transform="scale(0.015625)"/>
       <path d="M -19 4666 
L 3928 4666 
L 3928 4134 
L 2272 4134 
L 2272 0 
L 1638 0 
L 1638 4134 
L -19 4134 
L -19 4666 
z
" id="DejaVuSans-54" transform="scale(0.015625)"/>
       <path d="M 628 4666 
L 3578 4666 
L 3578 4134 
L 1259 4134 
L 1259 2753 
L 3481 2753 
L 3481 2222 
L 1259 2222 
L 1259 531 
L 3634 531 
L 3634 0 
L 628 0 
L 628 4666 
z
" id="DejaVuSans-45" transform="scale(0.015625)"/>
       <path d="M 1984 4856 
Q 1566 4138 1362 3434 
Q 1159 2731 1159 2009 
Q 1159 1288 1364 580 
Q 1569 -128 1984 -844 
L 1484 -844 
Q 1016 -109 783 600 
Q 550 1309 550 2009 
Q 550 2706 781 3412 
Q 1013 4119 1484 4856 
L 1984 4856 
z
" id="DejaVuSans-28" transform="scale(0.015625)"/>
       <path d="M 603 4863 
L 1178 4863 
L 1178 0 
L 603 0 
L 603 4863 
z
" id="DejaVuSans-6c" transform="scale(0.015625)"/>
       <path d="M 3597 1894 
L 3597 1613 
L 953 1613 
Q 991 1019 1311 708 
Q 1631 397 2203 397 
Q 2534 397 2845 478 
Q 3156 559 3463 722 
L 3463 178 
Q 3153 47 2828 -22 
Q 2503 -91 2169 -91 
Q 1331 -91 842 396 
Q 353 884 353 1716 
Q 353 2575 817 3079 
Q 1281 3584 2069 3584 
Q 2775 3584 3186 3129 
Q 3597 2675 3597 1894 
z
M 3022 2063 
Q 3016 2534 2758 2815 
Q 2500 3097 2075 3097 
Q 1594 3097 1305 2825 
Q 1016 2553 972 2059 
L 3022 2063 
z
" id="DejaVuSans-65" transform="scale(0.015625)"/>
       <path d="M 2375 4863 
L 2375 4384 
L 1825 4384 
Q 1516 4384 1395 4259 
Q 1275 4134 1275 3809 
L 1275 3500 
L 2222 3500 
L 2222 3053 
L 1275 3053 
L 1275 0 
L 697 0 
L 697 3053 
L 147 3053 
L 147 3500 
L 697 3500 
L 697 3744 
Q 697 4328 969 4595 
Q 1241 4863 1831 4863 
L 2375 4863 
z
" id="DejaVuSans-66" transform="scale(0.015625)"/>
       <path d="M 513 4856 
L 1013 4856 
Q 1481 4119 1714 3412 
Q 1947 2706 1947 2009 
Q 1947 1309 1714 600 
Q 1481 -109 1013 -844 
L 513 -844 
Q 928 -128 1133 580 
Q 1338 1288 1338 2009 
Q 1338 2731 1133 3434 
Q 928 4138 513 4856 
z
" id="DejaVuSans-29" transform="scale(0.015625)"/>
      </defs>
      <use xlink:href="#DejaVuSans-77"/>
      <use x="81.787109" xlink:href="#DejaVuSans-69"/>
      <use x="109.570312" xlink:href="#DejaVuSans-74"/>
      <use x="148.779297" xlink:href="#DejaVuSans-68"/>
      <use x="212.158203" xlink:href="#DejaVuSans-20"/>
      <use x="243.945312" xlink:href="#DejaVuSans-54"/>
      <use x="305.029297" xlink:href="#DejaVuSans-45"/>
      <use x="368.212891" xlink:href="#DejaVuSans-20"/>
      <use x="400" xlink:href="#DejaVuSans-28"/>
      <use x="439.013672" xlink:href="#DejaVuSans-6c"/>
      <use x="466.796875" xlink:href="#DejaVuSans-65"/>
      <use x="528.320312" xlink:href="#DejaVuSans-66"/>
      <use x="561.775391" xlink:href="#DejaVuSans-74"/>
      <use x="600.984375" xlink:href="#DejaVuSans-29"/>
     </g>
    </g>
    <g id="line2d_27">
     <path d="M 260.920687 69.248563 
L 280.920687 69.248563 
" style="fill:none;stroke:#00ff00;stroke-linecap:square;"/>
    </g>
    <g id="line2d_28"/>
    <g id="text_22">
     <!-- with TE (right) -->
     <g transform="translate(288.920687 72.748563)scale(0.1 -0.1)">
      <defs>
       <path d="M 2631 2963 
Q 2534 3019 2420 3045 
Q 2306 3072 2169 3072 
Q 1681 3072 1420 2755 
Q 1159 2438 1159 1844 
L 1159 0 
L 581 0 
L 581 3500 
L 1159 3500 
L 1159 2956 
Q 1341 3275 1631 3429 
Q 1922 3584 2338 3584 
Q 2397 3584 2469 3576 
Q 2541 3569 2628 3553 
L 2631 2963 
z
" id="DejaVuSans-72" transform="scale(0.015625)"/>
       <path d="M 2906 1791 
Q 2906 2416 2648 2759 
Q 2391 3103 1925 3103 
Q 1463 3103 1205 2759 
Q 947 2416 947 1791 
Q 947 1169 1205 825 
Q 1463 481 1925 481 
Q 2391 481 2648 825 
Q 2906 1169 2906 1791 
z
M 3481 434 
Q 3481 -459 3084 -895 
Q 2688 -1331 1869 -1331 
Q 1566 -1331 1297 -1286 
Q 1028 -1241 775 -1147 
L 775 -588 
Q 1028 -725 1275 -790 
Q 1522 -856 1778 -856 
Q 2344 -856 2625 -561 
Q 2906 -266 2906 331 
L 2906 616 
Q 2728 306 2450 153 
Q 2172 0 1784 0 
Q 1141 0 747 490 
Q 353 981 353 1791 
Q 353 2603 747 3093 
Q 1141 3584 1784 3584 
Q 2172 3584 2450 3431 
Q 2728 3278 2906 2969 
L 2906 3500 
L 3481 3500 
L 3481 434 
z
" id="DejaVuSans-67" transform="scale(0.015625)"/>
      </defs>
      <use xlink:href="#DejaVuSans-77"/>
      <use x="81.787109" xlink:href="#DejaVuSans-69"/>
      <use x="109.570312" xlink:href="#DejaVuSans-74"/>
      <use x="148.779297" xlink:href="#DejaVuSans-68"/>
      <use x="212.158203" xlink:href="#DejaVuSans-20"/>
      <use x="243.945312" xlink:href="#DejaVuSans-54"/>
      <use x="305.029297" xlink:href="#DejaVuSans-45"/>
      <use x="368.212891" xlink:href="#DejaVuSans-20"/>
      <use x="400" xlink:href="#DejaVuSans-28"/>
      <use x="439.013672" xlink:href="#DejaVuSans-72"/>
      <use x="480.126953" xlink:href="#DejaVuSans-69"/>
      <use x="507.910156" xlink:href="#DejaVuSans-67"/>
      <use x="571.386719" xlink:href="#DejaVuSans-68"/>
      <use x="634.765625" xlink:href="#DejaVuSans-74"/>
      <use x="673.974609" xlink:href="#DejaVuSans-29"/>
     </g>
    </g>
    <g id="line2d_29">
     <path d="M 260.920687 83.926688 
L 280.920687 83.926688 
" style="fill:none;stroke:#0000ff;stroke-linecap:square;"/>
    </g>
    <g id="line2d_30"/>
    <g id="text_23">
     <!-- no TE (left) -->
     <g transform="translate(288.920687 87.426688)scale(0.1 -0.1)">
      <use xlink:href="#DejaVuSans-6e"/>
      <use x="63.378906" xlink:href="#DejaVuSans-6f"/>
      <use x="124.560547" xlink:href="#DejaVuSans-20"/>
      <use x="156.347656" xlink:href="#DejaVuSans-54"/>
      <use x="217.431641" xlink:href="#DejaVuSans-45"/>
      <use x="280.615234" xlink:href="#DejaVuSans-20"/>
      <use x="312.402344" xlink:href="#DejaVuSans-28"/>
      <use x="351.416016" xlink:href="#DejaVuSans-6c"/>
      <use x="379.199219" xlink:href="#DejaVuSans-65"/>
      <use x="440.722656" xlink:href="#DejaVuSans-66"/>
      <use x="474.177734" xlink:href="#DejaVuSans-74"/>
      <use x="513.386719" xlink:href="#DejaVuSans-29"/>
     </g>
    </g>
    <g id="line2d_31">
     <path d="M 260.920687 98.604813 
L 280.920687 98.604813 
" style="fill:none;stroke:#000000;stroke-linecap:square;"/>
    </g>
    <g id="line2d_32"/>
    <g id="text_24">
     <!-- no TE (right) -->
     <g transform="translate(288.920687 102.104813)scale(0.1 -0.1)">
      <use xlink:href="#DejaVuSans-6e"/>
      <use x="63.378906" xlink:href="#DejaVuSans-6f"/>
      <use x="124.560547" xlink:href="#DejaVuSans-20"/>
      <use x="156.347656" xlink:href="#DejaVuSans-54"/>
      <use x="217.431641" xlink:href="#DejaVuSans-45"/>
      <use x="280.615234" xlink:href="#DejaVuSans-20"/>
      <use x="312.402344" xlink:href="#DejaVuSans-28"/>
      <use x="351.416016" xlink:href="#DejaVuSans-72"/>
      <use x="392.529297" xlink:href="#DejaVuSans-69"/>
      <use x="420.3125" xlink:href="#DejaVuSans-67"/>
      <use x="483.789062" xlink:href="#DejaVuSans-68"/>
      <use x="547.167969" xlink:href="#DejaVuSans-74"/>
      <use x="586.376953" xlink:href="#DejaVuSans-29"/>
     </g>
    </g>
   </g>
  </g>
 </g>
 <defs>
  <clipPath id="pe812097a6e">
   <rect height="266.112" width="266.112" x="103.104" y="41.472"/>
  </clipPath>
 </defs>
</svg>
