<?xml version="1.0" encoding="utf-8" standalone="no"?>
<!DOCTYPE svg PUBLIC "-//W3C//DTD SVG 1.1//EN"
  "http://www.w3.org/Graphics/SVG/1.1/DTD/svg11.dtd">
<svg height="345.6pt" version="1.1" viewBox="0 0 460.8 345.6" width="460.8pt" xmlns="http://www.w3.org/2000/svg" xmlns:xlink="http://www.w3.org/1999/xlink">
 <metadata>
  <rdf:RDF xmlns:cc="http://creativecommons.org/ns#" xmlns:dc="http://purl.org/dc/elements/1.1/" xmlns:rdf="http://www.w3.org/1999/02/22-rdf-syntax-ns#">
   <cc:Work>
    <dc:type rdf:resource="http://purl.org/dc/dcmitype/StillImage"/>
    <dc:date>2024-06-02T15:41:14.325342</dc:date>
    <dc:format>image/svg+xml</dc:format>
    <dc:creator>
     <cc:Agent>
      <dc:title>Matplotlib v3.4.3, https://matplotlib.org/</dc:title>
     </cc:Agent>
    </dc:creator>
   </cc:Work>
  </rdf:RDF>
 </metadata>
 <defs>
  <style type="text/css">*{stroke-linecap:butt;stroke-linejoin:round;}</style>
 </defs>
 <g id="figure_1">
  <g id="patch_1">
   <path d="M 0 345.6 
L 460.8 345.6 
L 460.8 0 
L 0 0 
z
" style="fill:#ffffff;"/>
  </g>
  <g id="patch_2">
   <path d="M 103.104 307.584 
L 369.216 307.584 
L 369.216 41.472 
L 103.104 41.472 
z
" style="fill:#ffffff;"/>
  </g>
  <g id="pane3d_1">
   <g id="patch_3">
    <path d="M 123.197291 241.969309 
L 211.076164 168.307495 
L 209.854564 62.073991 
L 117.770234 129.272941 
" style="fill:#f2f2f2;opacity:0.5;stroke:#f2f2f2;stroke-linejoin:miter;"/>
   </g>
  </g>
  <g id="pane3d_2">
   <g id="patch_4">
    <path d="M 211.076164 168.307495 
L 352.090401 209.294766 
L 357.122702 99.402171 
L 209.854564 62.073991 
" style="fill:#e6e6e6;opacity:0.5;stroke:#e6e6e6;stroke-linejoin:miter;"/>
   </g>
  </g>
  <g id="pane3d_3">
   <g id="patch_5">
    <path d="M 123.197291 241.969309 
L 272.679269 290.790123 
L 352.090401 209.294766 
L 211.076164 168.307495 
" style="fill:#ececec;opacity:0.5;stroke:#ececec;stroke-linejoin:miter;"/>
   </g>
  </g>
  <g id="axis3d_1">
   <g id="line2d_1">
    <path d="M 123.197291 241.969309 
L 272.679269 290.790123 
" style="fill:none;stroke:#000000;stroke-linecap:square;stroke-width:0.8;"/>
   </g>
   <g id="text_1">
    <!-- Position x -->
    <g transform="translate(155.993802 296.176284)rotate(-341.912962)scale(0.1 -0.1)">
     <defs>
      <path d="M 1259 4147 
L 1259 2394 
L 2053 2394 
Q 2494 2394 2734 2622 
Q 2975 2850 2975 3272 
Q 2975 3691 2734 3919 
Q 2494 4147 2053 4147 
L 1259 4147 
z
M 628 4666 
L 2053 4666 
Q 2838 4666 3239 4311 
Q 3641 3956 3641 3272 
Q 3641 2581 3239 2228 
Q 2838 1875 2053 1875 
L 1259 1875 
L 1259 0 
L 628 0 
L 628 4666 
z
" id="DejaVuSans-50" transform="scale(0.015625)"/>
      <path d="M 1959 3097 
Q 1497 3097 1228 2736 
Q 959 2375 959 1747 
Q 959 1119 1226 758 
Q 1494 397 1959 397 
Q 2419 397 2687 759 
Q 2956 1122 2956 1747 
Q 2956 2369 2687 2733 
Q 2419 3097 1959 3097 
z
M 1959 3584 
Q 2709 3584 3137 3096 
Q 3566 2609 3566 1747 
Q 3566 888 3137 398 
Q 2709 -91 1959 -91 
Q 1206 -91 779 398 
Q 353 888 353 1747 
Q 353 2609 779 3096 
Q 1206 3584 1959 3584 
z
" id="DejaVuSans-6f" transform="scale(0.015625)"/>
      <path d="M 2834 3397 
L 2834 2853 
Q 2591 2978 2328 3040 
Q 2066 3103 1784 3103 
Q 1356 3103 1142 2972 
Q 928 2841 928 2578 
Q 928 2378 1081 2264 
Q 1234 2150 1697 2047 
L 1894 2003 
Q 2506 1872 2764 1633 
Q 3022 1394 3022 966 
Q 3022 478 2636 193 
Q 2250 -91 1575 -91 
Q 1294 -91 989 -36 
Q 684 19 347 128 
L 347 722 
Q 666 556 975 473 
Q 1284 391 1588 391 
Q 1994 391 2212 530 
Q 2431 669 2431 922 
Q 2431 1156 2273 1281 
Q 2116 1406 1581 1522 
L 1381 1569 
Q 847 1681 609 1914 
Q 372 2147 372 2553 
Q 372 3047 722 3315 
Q 1072 3584 1716 3584 
Q 2034 3584 2315 3537 
Q 2597 3491 2834 3397 
z
" id="DejaVuSans-73" transform="scale(0.015625)"/>
      <path d="M 603 3500 
L 1178 3500 
L 1178 0 
L 603 0 
L 603 3500 
z
M 603 4863 
L 1178 4863 
L 1178 4134 
L 603 4134 
L 603 4863 
z
" id="DejaVuSans-69" transform="scale(0.015625)"/>
      <path d="M 1172 4494 
L 1172 3500 
L 2356 3500 
L 2356 3053 
L 1172 3053 
L 1172 1153 
Q 1172 725 1289 603 
Q 1406 481 1766 481 
L 2356 481 
L 2356 0 
L 1766 0 
Q 1100 0 847 248 
Q 594 497 594 1153 
L 594 3053 
L 172 3053 
L 172 3500 
L 594 3500 
L 594 4494 
L 1172 4494 
z
" id="DejaVuSans-74" transform="scale(0.015625)"/>
      <path d="M 3513 2113 
L 3513 0 
L 2938 0 
L 2938 2094 
Q 2938 2591 2744 2837 
Q 2550 3084 2163 3084 
Q 1697 3084 1428 2787 
Q 1159 2491 1159 1978 
L 1159 0 
L 581 0 
L 581 3500 
L 1159 3500 
L 1159 2956 
Q 1366 3272 1645 3428 
Q 1925 3584 2291 3584 
Q 2894 3584 3203 3211 
Q 3513 2838 3513 2113 
z
" id="DejaVuSans-6e" transform="scale(0.015625)"/>
      <path id="DejaVuSans-20" transform="scale(0.015625)"/>
      <path d="M 3513 3500 
L 2247 1797 
L 3578 0 
L 2900 0 
L 1881 1375 
L 863 0 
L 184 0 
L 1544 1831 
L 300 3500 
L 978 3500 
L 1906 2253 
L 2834 3500 
L 3513 3500 
z
" id="DejaVuSans-78" transform="scale(0.015625)"/>
     </defs>
     <use xlink:href="#DejaVuSans-50"/>
     <use x="56.677734" xlink:href="#DejaVuSans-6f"/>
     <use x="117.859375" xlink:href="#DejaVuSans-73"/>
     <use x="169.958984" xlink:href="#DejaVuSans-69"/>
     <use x="197.742188" xlink:href="#DejaVuSans-74"/>
     <use x="236.951172" xlink:href="#DejaVuSans-69"/>
     <use x="264.734375" xlink:href="#DejaVuSans-6f"/>
     <use x="325.916016" xlink:href="#DejaVuSans-6e"/>
     <use x="389.294922" xlink:href="#DejaVuSans-20"/>
     <use x="421.082031" xlink:href="#DejaVuSans-78"/>
    </g>
   </g>
   <g id="Line3DCollection_1">
    <path d="M 151.712921 251.282514 
L 238.072703 176.154323 
L 238.000291 69.208112 
" style="fill:none;stroke:#b0b0b0;stroke-width:0.8;"/>
    <path d="M 178.91676 260.167287 
L 263.784925 183.627851 
L 264.828177 76.008199 
" style="fill:none;stroke:#b0b0b0;stroke-width:0.8;"/>
    <path d="M 206.656547 269.227102 
L 289.961172 191.236252 
L 292.161442 82.936385 
" style="fill:none;stroke:#b0b0b0;stroke-width:0.8;"/>
    <path d="M 234.94828 278.467182 
L 316.614121 198.983212 
L 320.014501 89.996324 
" style="fill:none;stroke:#b0b0b0;stroke-width:0.8;"/>
    <path d="M 263.808596 287.892961 
L 343.756913 206.87255 
L 348.402325 97.19181 
" style="fill:none;stroke:#b0b0b0;stroke-width:0.8;"/>
   </g>
   <g id="xtick_1">
    <g id="line2d_2">
     <path d="M 152.465366 250.627928 
L 150.204778 252.594513 
" style="fill:none;stroke:#000000;stroke-linecap:square;stroke-width:0.8;"/>
    </g>
    <g id="text_2">
     <!-- 2.80 -->
     <g transform="translate(133.070806 274.72628)scale(0.1 -0.1)">
      <defs>
       <path d="M 1228 531 
L 3431 531 
L 3431 0 
L 469 0 
L 469 531 
Q 828 903 1448 1529 
Q 2069 2156 2228 2338 
Q 2531 2678 2651 2914 
Q 2772 3150 2772 3378 
Q 2772 3750 2511 3984 
Q 2250 4219 1831 4219 
Q 1534 4219 1204 4116 
Q 875 4013 500 3803 
L 500 4441 
Q 881 4594 1212 4672 
Q 1544 4750 1819 4750 
Q 2544 4750 2975 4387 
Q 3406 4025 3406 3419 
Q 3406 3131 3298 2873 
Q 3191 2616 2906 2266 
Q 2828 2175 2409 1742 
Q 1991 1309 1228 531 
z
" id="DejaVuSans-32" transform="scale(0.015625)"/>
       <path d="M 684 794 
L 1344 794 
L 1344 0 
L 684 0 
L 684 794 
z
" id="DejaVuSans-2e" transform="scale(0.015625)"/>
       <path d="M 2034 2216 
Q 1584 2216 1326 1975 
Q 1069 1734 1069 1313 
Q 1069 891 1326 650 
Q 1584 409 2034 409 
Q 2484 409 2743 651 
Q 3003 894 3003 1313 
Q 3003 1734 2745 1975 
Q 2488 2216 2034 2216 
z
M 1403 2484 
Q 997 2584 770 2862 
Q 544 3141 544 3541 
Q 544 4100 942 4425 
Q 1341 4750 2034 4750 
Q 2731 4750 3128 4425 
Q 3525 4100 3525 3541 
Q 3525 3141 3298 2862 
Q 3072 2584 2669 2484 
Q 3125 2378 3379 2068 
Q 3634 1759 3634 1313 
Q 3634 634 3220 271 
Q 2806 -91 2034 -91 
Q 1263 -91 848 271 
Q 434 634 434 1313 
Q 434 1759 690 2068 
Q 947 2378 1403 2484 
z
M 1172 3481 
Q 1172 3119 1398 2916 
Q 1625 2713 2034 2713 
Q 2441 2713 2670 2916 
Q 2900 3119 2900 3481 
Q 2900 3844 2670 4047 
Q 2441 4250 2034 4250 
Q 1625 4250 1398 4047 
Q 1172 3844 1172 3481 
z
" id="DejaVuSans-38" transform="scale(0.015625)"/>
       <path d="M 2034 4250 
Q 1547 4250 1301 3770 
Q 1056 3291 1056 2328 
Q 1056 1369 1301 889 
Q 1547 409 2034 409 
Q 2525 409 2770 889 
Q 3016 1369 3016 2328 
Q 3016 3291 2770 3770 
Q 2525 4250 2034 4250 
z
M 2034 4750 
Q 2819 4750 3233 4129 
Q 3647 3509 3647 2328 
Q 3647 1150 3233 529 
Q 2819 -91 2034 -91 
Q 1250 -91 836 529 
Q 422 1150 422 2328 
Q 422 3509 836 4129 
Q 1250 4750 2034 4750 
z
" id="DejaVuSans-30" transform="scale(0.015625)"/>
      </defs>
      <use xlink:href="#DejaVuSans-32"/>
      <use x="63.623047" xlink:href="#DejaVuSans-2e"/>
      <use x="95.410156" xlink:href="#DejaVuSans-38"/>
      <use x="159.033203" xlink:href="#DejaVuSans-30"/>
     </g>
    </g>
   </g>
   <g id="xtick_2">
    <g id="line2d_3">
     <path d="M 179.656799 259.499874 
L 177.433453 261.505027 
" style="fill:none;stroke:#000000;stroke-linecap:square;stroke-width:0.8;"/>
    </g>
    <g id="text_3">
     <!-- 2.82 -->
     <g transform="translate(160.303952 283.799787)scale(0.1 -0.1)">
      <use xlink:href="#DejaVuSans-32"/>
      <use x="63.623047" xlink:href="#DejaVuSans-2e"/>
      <use x="95.410156" xlink:href="#DejaVuSans-38"/>
      <use x="159.033203" xlink:href="#DejaVuSans-32"/>
     </g>
    </g>
   </g>
   <g id="xtick_3">
    <g id="line2d_4">
     <path d="M 207.383543 268.54648 
L 205.199353 270.591346 
" style="fill:none;stroke:#000000;stroke-linecap:square;stroke-width:0.8;"/>
    </g>
    <g id="text_4">
     <!-- 2.84 -->
     <g transform="translate(188.075673 293.052736)scale(0.1 -0.1)">
      <defs>
       <path d="M 2419 4116 
L 825 1625 
L 2419 1625 
L 2419 4116 
z
M 2253 4666 
L 3047 4666 
L 3047 1625 
L 3713 1625 
L 3713 1100 
L 3047 1100 
L 3047 0 
L 2419 0 
L 2419 1100 
L 313 1100 
L 313 1709 
L 2253 4666 
z
" id="DejaVuSans-34" transform="scale(0.015625)"/>
      </defs>
      <use xlink:href="#DejaVuSans-32"/>
      <use x="63.623047" xlink:href="#DejaVuSans-2e"/>
      <use x="95.410156" xlink:href="#DejaVuSans-38"/>
      <use x="159.033203" xlink:href="#DejaVuSans-34"/>
     </g>
    </g>
   </g>
   <g id="xtick_4">
    <g id="line2d_5">
     <path d="M 235.661564 277.772955 
L 233.518538 279.858725 
" style="fill:none;stroke:#000000;stroke-linecap:square;stroke-width:0.8;"/>
    </g>
    <g id="text_5">
     <!-- 2.86 -->
     <g transform="translate(216.402105 302.490503)scale(0.1 -0.1)">
      <defs>
       <path d="M 2113 2584 
Q 1688 2584 1439 2293 
Q 1191 2003 1191 1497 
Q 1191 994 1439 701 
Q 1688 409 2113 409 
Q 2538 409 2786 701 
Q 3034 994 3034 1497 
Q 3034 2003 2786 2293 
Q 2538 2584 2113 2584 
z
M 3366 4563 
L 3366 3988 
Q 3128 4100 2886 4159 
Q 2644 4219 2406 4219 
Q 1781 4219 1451 3797 
Q 1122 3375 1075 2522 
Q 1259 2794 1537 2939 
Q 1816 3084 2150 3084 
Q 2853 3084 3261 2657 
Q 3669 2231 3669 1497 
Q 3669 778 3244 343 
Q 2819 -91 2113 -91 
Q 1303 -91 875 529 
Q 447 1150 447 2328 
Q 447 3434 972 4092 
Q 1497 4750 2381 4750 
Q 2619 4750 2861 4703 
Q 3103 4656 3366 4563 
z
" id="DejaVuSans-36" transform="scale(0.015625)"/>
      </defs>
      <use xlink:href="#DejaVuSans-32"/>
      <use x="63.623047" xlink:href="#DejaVuSans-2e"/>
      <use x="95.410156" xlink:href="#DejaVuSans-38"/>
      <use x="159.033203" xlink:href="#DejaVuSans-36"/>
     </g>
    </g>
   </g>
   <g id="xtick_5">
    <g id="line2d_6">
     <path d="M 264.507468 287.184717 
L 262.40771 289.312632 
" style="fill:none;stroke:#000000;stroke-linecap:square;stroke-width:0.8;"/>
    </g>
    <g id="text_6">
     <!-- 2.88 -->
     <g transform="translate(245.300035 312.118681)scale(0.1 -0.1)">
      <use xlink:href="#DejaVuSans-32"/>
      <use x="63.623047" xlink:href="#DejaVuSans-2e"/>
      <use x="95.410156" xlink:href="#DejaVuSans-38"/>
      <use x="159.033203" xlink:href="#DejaVuSans-38"/>
     </g>
    </g>
   </g>
  </g>
  <g id="axis3d_2">
   <g id="line2d_7">
    <path d="M 352.090401 209.294766 
L 272.679269 290.790123 
" style="fill:none;stroke:#000000;stroke-linecap:square;stroke-width:0.8;"/>
   </g>
   <g id="text_7">
    <!-- Position y -->
    <g transform="translate(326.351001 295.352953)rotate(-45.742112)scale(0.1 -0.1)">
     <defs>
      <path d="M 2059 -325 
Q 1816 -950 1584 -1140 
Q 1353 -1331 966 -1331 
L 506 -1331 
L 506 -850 
L 844 -850 
Q 1081 -850 1212 -737 
Q 1344 -625 1503 -206 
L 1606 56 
L 191 3500 
L 800 3500 
L 1894 763 
L 2988 3500 
L 3597 3500 
L 2059 -325 
z
" id="DejaVuSans-79" transform="scale(0.015625)"/>
     </defs>
     <use xlink:href="#DejaVuSans-50"/>
     <use x="56.677734" xlink:href="#DejaVuSans-6f"/>
     <use x="117.859375" xlink:href="#DejaVuSans-73"/>
     <use x="169.958984" xlink:href="#DejaVuSans-69"/>
     <use x="197.742188" xlink:href="#DejaVuSans-74"/>
     <use x="236.951172" xlink:href="#DejaVuSans-69"/>
     <use x="264.734375" xlink:href="#DejaVuSans-6f"/>
     <use x="325.916016" xlink:href="#DejaVuSans-6e"/>
     <use x="389.294922" xlink:href="#DejaVuSans-20"/>
     <use x="421.082031" xlink:href="#DejaVuSans-79"/>
    </g>
   </g>
   <g id="Line3DCollection_2">
    <path d="M 131.888521 118.970058 
L 136.627542 230.711807 
L 284.860884 278.288789 
" style="fill:none;stroke:#b0b0b0;stroke-width:0.8;"/>
    <path d="M 148.47758 106.864119 
L 152.428122 217.467447 
L 299.171392 263.602687 
" style="fill:none;stroke:#b0b0b0;stroke-width:0.8;"/>
    <path d="M 164.558622 95.128906 
L 167.765468 204.611379 
L 313.040622 249.369446 
" style="fill:none;stroke:#b0b0b0;stroke-width:0.8;"/>
    <path d="M 180.154633 83.747648 
L 182.659656 192.126775 
L 326.488673 235.568437 
" style="fill:none;stroke:#b0b0b0;stroke-width:0.8;"/>
    <path d="M 195.28723 72.704567 
L 197.12962 179.997765 
L 339.534444 222.180267 
" style="fill:none;stroke:#b0b0b0;stroke-width:0.8;"/>
   </g>
   <g id="xtick_6">
    <g id="line2d_8">
     <path d="M 283.612177 277.888004 
L 287.361504 279.091388 
" style="fill:none;stroke:#000000;stroke-linecap:square;stroke-width:0.8;"/>
    </g>
    <g id="text_8">
     <!-- −0.2 -->
     <g transform="translate(285.510464 299.208873)scale(0.1 -0.1)">
      <defs>
       <path d="M 678 2272 
L 4684 2272 
L 4684 1741 
L 678 1741 
L 678 2272 
z
" id="DejaVuSans-2212" transform="scale(0.015625)"/>
      </defs>
      <use xlink:href="#DejaVuSans-2212"/>
      <use x="83.789062" xlink:href="#DejaVuSans-30"/>
      <use x="147.412109" xlink:href="#DejaVuSans-2e"/>
      <use x="179.199219" xlink:href="#DejaVuSans-32"/>
     </g>
    </g>
   </g>
   <g id="xtick_7">
    <g id="line2d_9">
     <path d="M 297.936211 263.214353 
L 301.644876 264.380336 
" style="fill:none;stroke:#000000;stroke-linecap:square;stroke-width:0.8;"/>
    </g>
    <g id="text_9">
     <!-- −0.1 -->
     <g transform="translate(299.628929 284.305446)scale(0.1 -0.1)">
      <defs>
       <path d="M 794 531 
L 1825 531 
L 1825 4091 
L 703 3866 
L 703 4441 
L 1819 4666 
L 2450 4666 
L 2450 531 
L 3481 531 
L 3481 0 
L 794 0 
L 794 531 
z
" id="DejaVuSans-31" transform="scale(0.015625)"/>
      </defs>
      <use xlink:href="#DejaVuSans-2212"/>
      <use x="83.789062" xlink:href="#DejaVuSans-30"/>
      <use x="147.412109" xlink:href="#DejaVuSans-2e"/>
      <use x="179.199219" xlink:href="#DejaVuSans-31"/>
     </g>
    </g>
   </g>
   <g id="xtick_8">
    <g id="line2d_10">
     <path d="M 311.818732 248.992992 
L 315.48744 250.12329 
" style="fill:none;stroke:#000000;stroke-linecap:square;stroke-width:0.8;"/>
    </g>
    <g id="text_10">
     <!-- 0.0 -->
     <g transform="translate(317.501629 269.861846)scale(0.1 -0.1)">
      <use xlink:href="#DejaVuSans-30"/>
      <use x="63.623047" xlink:href="#DejaVuSans-2e"/>
      <use x="95.410156" xlink:href="#DejaVuSans-30"/>
     </g>
    </g>
   </g>
   <g id="xtick_9">
    <g id="line2d_11">
     <path d="M 325.279843 235.203326 
L 328.909293 236.299554 
" style="fill:none;stroke:#000000;stroke-linecap:square;stroke-width:0.8;"/>
    </g>
    <g id="text_11">
     <!-- 0.1 -->
     <g transform="translate(330.768731 255.857116)scale(0.1 -0.1)">
      <use xlink:href="#DejaVuSans-30"/>
      <use x="63.623047" xlink:href="#DejaVuSans-2e"/>
      <use x="95.410156" xlink:href="#DejaVuSans-31"/>
     </g>
    </g>
   </g>
   <g id="xtick_10">
    <g id="line2d_12">
     <path d="M 338.338446 221.825994 
L 341.929326 222.889668 
" style="fill:none;stroke:#000000;stroke-linecap:square;stroke-width:0.8;"/>
    </g>
    <g id="text_12">
     <!-- 0.2 -->
     <g transform="translate(343.638744 242.271552)scale(0.1 -0.1)">
      <use xlink:href="#DejaVuSans-30"/>
      <use x="63.623047" xlink:href="#DejaVuSans-2e"/>
      <use x="95.410156" xlink:href="#DejaVuSans-32"/>
     </g>
    </g>
   </g>
  </g>
  <g id="axis3d_3">
   <g id="line2d_13">
    <path d="M 352.090401 209.294766 
L 357.122702 99.402171 
" style="fill:none;stroke:#000000;stroke-linecap:square;stroke-width:0.8;"/>
   </g>
   <g id="text_13">
    <!-- Position z -->
    <g transform="translate(396.600597 173.921688)rotate(-87.378092)scale(0.1 -0.1)">
     <defs>
      <path d="M 353 3500 
L 3084 3500 
L 3084 2975 
L 922 459 
L 3084 459 
L 3084 0 
L 275 0 
L 275 525 
L 2438 3041 
L 353 3041 
L 353 3500 
z
" id="DejaVuSans-7a" transform="scale(0.015625)"/>
     </defs>
     <use xlink:href="#DejaVuSans-50"/>
     <use x="56.677734" xlink:href="#DejaVuSans-6f"/>
     <use x="117.859375" xlink:href="#DejaVuSans-73"/>
     <use x="169.958984" xlink:href="#DejaVuSans-69"/>
     <use x="197.742188" xlink:href="#DejaVuSans-74"/>
     <use x="236.951172" xlink:href="#DejaVuSans-69"/>
     <use x="264.734375" xlink:href="#DejaVuSans-6f"/>
     <use x="325.916016" xlink:href="#DejaVuSans-6e"/>
     <use x="389.294922" xlink:href="#DejaVuSans-20"/>
     <use x="421.082031" xlink:href="#DejaVuSans-7a"/>
    </g>
   </g>
   <g id="Line3DCollection_3">
    <path d="M 352.366213 203.271727 
L 211.009077 162.473376 
L 122.900316 235.802436 
" style="fill:none;stroke:#b0b0b0;stroke-width:0.8;"/>
    <path d="M 353.228752 184.436075 
L 210.799376 144.237246 
L 121.971243 216.509625 
" style="fill:none;stroke:#b0b0b0;stroke-width:0.8;"/>
    <path d="M 354.104607 165.309653 
L 210.586593 125.733106 
L 121.027278 196.907577 
" style="fill:none;stroke:#b0b0b0;stroke-width:0.8;"/>
    <path d="M 354.994087 145.885673 
L 210.37066 106.955006 
L 120.06806 176.988796 
" style="fill:none;stroke:#b0b0b0;stroke-width:0.8;"/>
    <path d="M 355.897514 126.157139 
L 210.151506 87.896815 
L 119.093217 156.745543 
" style="fill:none;stroke:#b0b0b0;stroke-width:0.8;"/>
    <path d="M 356.815218 106.116831 
L 209.929058 68.552219 
L 118.102363 136.169826 
" style="fill:none;stroke:#b0b0b0;stroke-width:0.8;"/>
   </g>
   <g id="xtick_11">
    <g id="line2d_14">
     <path d="M 351.179701 202.929277 
L 354.742066 203.957443 
" style="fill:none;stroke:#000000;stroke-linecap:square;stroke-width:0.8;"/>
    </g>
    <g id="text_14">
     <!-- 3.64 -->
     <g transform="translate(359.525882 208.276893)scale(0.1 -0.1)">
      <defs>
       <path d="M 2597 2516 
Q 3050 2419 3304 2112 
Q 3559 1806 3559 1356 
Q 3559 666 3084 287 
Q 2609 -91 1734 -91 
Q 1441 -91 1130 -33 
Q 819 25 488 141 
L 488 750 
Q 750 597 1062 519 
Q 1375 441 1716 441 
Q 2309 441 2620 675 
Q 2931 909 2931 1356 
Q 2931 1769 2642 2001 
Q 2353 2234 1838 2234 
L 1294 2234 
L 1294 2753 
L 1863 2753 
Q 2328 2753 2575 2939 
Q 2822 3125 2822 3475 
Q 2822 3834 2567 4026 
Q 2313 4219 1838 4219 
Q 1578 4219 1281 4162 
Q 984 4106 628 3988 
L 628 4550 
Q 988 4650 1302 4700 
Q 1616 4750 1894 4750 
Q 2613 4750 3031 4423 
Q 3450 4097 3450 3541 
Q 3450 3153 3228 2886 
Q 3006 2619 2597 2516 
z
" id="DejaVuSans-33" transform="scale(0.015625)"/>
      </defs>
      <use xlink:href="#DejaVuSans-33"/>
      <use x="63.623047" xlink:href="#DejaVuSans-2e"/>
      <use x="95.410156" xlink:href="#DejaVuSans-36"/>
      <use x="159.033203" xlink:href="#DejaVuSans-34"/>
     </g>
    </g>
   </g>
   <g id="xtick_12">
    <g id="line2d_15">
     <path d="M 352.032811 184.098537 
L 355.623508 185.111964 
" style="fill:none;stroke:#000000;stroke-linecap:square;stroke-width:0.8;"/>
    </g>
    <g id="text_15">
     <!-- 3.65 -->
     <g transform="translate(360.525496 189.478482)scale(0.1 -0.1)">
      <defs>
       <path d="M 691 4666 
L 3169 4666 
L 3169 4134 
L 1269 4134 
L 1269 2991 
Q 1406 3038 1543 3061 
Q 1681 3084 1819 3084 
Q 2600 3084 3056 2656 
Q 3513 2228 3513 1497 
Q 3513 744 3044 326 
Q 2575 -91 1722 -91 
Q 1428 -91 1123 -41 
Q 819 9 494 109 
L 494 744 
Q 775 591 1075 516 
Q 1375 441 1709 441 
Q 2250 441 2565 725 
Q 2881 1009 2881 1497 
Q 2881 1984 2565 2268 
Q 2250 2553 1709 2553 
Q 1456 2553 1204 2497 
Q 953 2441 691 2322 
L 691 4666 
z
" id="DejaVuSans-35" transform="scale(0.015625)"/>
      </defs>
      <use xlink:href="#DejaVuSans-33"/>
      <use x="63.623047" xlink:href="#DejaVuSans-2e"/>
      <use x="95.410156" xlink:href="#DejaVuSans-36"/>
      <use x="159.033203" xlink:href="#DejaVuSans-35"/>
     </g>
    </g>
   </g>
   <g id="xtick_13">
    <g id="line2d_16">
     <path d="M 352.899085 164.977218 
L 356.518569 165.975327 
" style="fill:none;stroke:#000000;stroke-linecap:square;stroke-width:0.8;"/>
    </g>
    <g id="text_16">
     <!-- 3.66 -->
     <g transform="translate(361.540494 170.390761)scale(0.1 -0.1)">
      <use xlink:href="#DejaVuSans-33"/>
      <use x="63.623047" xlink:href="#DejaVuSans-2e"/>
      <use x="95.410156" xlink:href="#DejaVuSans-36"/>
      <use x="159.033203" xlink:href="#DejaVuSans-36"/>
     </g>
    </g>
   </g>
   <g id="xtick_14">
    <g id="line2d_17">
     <path d="M 353.77883 145.558543 
L 357.427565 146.540733 
" style="fill:none;stroke:#000000;stroke-linecap:square;stroke-width:0.8;"/>
    </g>
    <g id="text_17">
     <!-- 3.67 -->
     <g transform="translate(362.571235 151.006998)scale(0.1 -0.1)">
      <defs>
       <path d="M 525 4666 
L 3525 4666 
L 3525 4397 
L 1831 0 
L 1172 0 
L 2766 4134 
L 525 4134 
L 525 4666 
z
" id="DejaVuSans-37" transform="scale(0.015625)"/>
      </defs>
      <use xlink:href="#DejaVuSans-33"/>
      <use x="63.623047" xlink:href="#DejaVuSans-2e"/>
      <use x="95.410156" xlink:href="#DejaVuSans-36"/>
      <use x="159.033203" xlink:href="#DejaVuSans-37"/>
     </g>
    </g>
   </g>
   <g id="xtick_15">
    <g id="line2d_18">
     <path d="M 354.672364 125.835521 
L 358.350826 126.801167 
" style="fill:none;stroke:#000000;stroke-linecap:square;stroke-width:0.8;"/>
    </g>
    <g id="text_18">
     <!-- 3.68 -->
     <g transform="translate(363.618087 131.320253)scale(0.1 -0.1)">
      <use xlink:href="#DejaVuSans-33"/>
      <use x="63.623047" xlink:href="#DejaVuSans-2e"/>
      <use x="95.410156" xlink:href="#DejaVuSans-36"/>
      <use x="159.033203" xlink:href="#DejaVuSans-38"/>
     </g>
    </g>
   </g>
   <g id="xtick_16">
    <g id="line2d_19">
     <path d="M 355.580013 105.80094 
L 359.288689 106.749395 
" style="fill:none;stroke:#000000;stroke-linecap:square;stroke-width:0.8;"/>
    </g>
    <g id="text_19">
     <!-- 3.69 -->
     <g transform="translate(364.681431 111.323367)scale(0.1 -0.1)">
      <defs>
       <path d="M 703 97 
L 703 672 
Q 941 559 1184 500 
Q 1428 441 1663 441 
Q 2288 441 2617 861 
Q 2947 1281 2994 2138 
Q 2813 1869 2534 1725 
Q 2256 1581 1919 1581 
Q 1219 1581 811 2004 
Q 403 2428 403 3163 
Q 403 3881 828 4315 
Q 1253 4750 1959 4750 
Q 2769 4750 3195 4129 
Q 3622 3509 3622 2328 
Q 3622 1225 3098 567 
Q 2575 -91 1691 -91 
Q 1453 -91 1209 -44 
Q 966 3 703 97 
z
M 1959 2075 
Q 2384 2075 2632 2365 
Q 2881 2656 2881 3163 
Q 2881 3666 2632 3958 
Q 2384 4250 1959 4250 
Q 1534 4250 1286 3958 
Q 1038 3666 1038 3163 
Q 1038 2656 1286 2365 
Q 1534 2075 1959 2075 
z
" id="DejaVuSans-39" transform="scale(0.015625)"/>
      </defs>
      <use xlink:href="#DejaVuSans-33"/>
      <use x="63.623047" xlink:href="#DejaVuSans-2e"/>
      <use x="95.410156" xlink:href="#DejaVuSans-36"/>
      <use x="159.033203" xlink:href="#DejaVuSans-39"/>
     </g>
    </g>
   </g>
  </g>
  <g id="axes_1">
   <g id="line2d_20">
    <path clip-path="url(#pd67f5d9845)" d="M 302.670349 125.907902 
L 293.969367 118.602768 
L 301.635024 111.60957 
L 306.802243 113.523457 
L 306.174957 117.368905 
L 303.712591 121.543162 
L 301.107378 126.879708 
L 298.605281 130.311208 
L 297.664268 131.112087 
L 297.176707 132.174777 
L 297.425984 133.800414 
L 297.248238 134.536032 
L 296.302027 134.405961 
L 294.957484 134.463538 
L 292.434093 133.656038 
L 289.630392 133.54206 
L 287.249688 133.234076 
L 285.70459 132.852569 
L 284.716028 132.748506 
L 284.342484 132.442347 
L 284.376374 132.712685 
L 284.1757 131.839062 
L 270.008213 124.881238 
L 265.359859 122.978071 
L 259.024309 119.310195 
L 258.698715 119.304375 
L 258.658232 119.175734 
L 258.829354 118.431381 
L 259.802526 117.473039 
L 259.623781 116.925474 
L 260.090249 117.509898 
L 260.316179 118.29382 
L 260.907251 118.933312 
L 261.823388 119.696362 
L 262.560856 120.001451 
L 263.101466 120.41281 
L 263.543664 120.092377 
L 264.048997 120.16894 
L 264.840279 121.026072 
L 265.410365 121.350494 
L 266.164825 122.195799 
L 267.170899 123.779585 
L 267.75031 125.178757 
L 268.25452 125.572285 
L 268.996453 125.991849 
L 270.423657 127.386763 
L 270.813155 128.033676 
L 270.994845 128.032456 
L 271.268977 128.424883 
L 271.483474 128.267263 
L 272.64938 128.654837 
L 273.011731 129.280273 
L 273.279203 129.992221 
L 273.635663 130.576342 
L 274.065182 131.654618 
L 274.578105 134.217868 
L 274.464688 135.43509 
L 274.479952 136.347122 
L 274.107707 137.956477 
L 273.959377 139.19958 
L 273.665126 139.691482 
L 273.384991 139.925986 
L 273.132418 140.28925 
L 272.916933 140.380867 
L 272.680089 140.141993 
L 272.398034 140.0936 
L 272.299862 139.962064 
L 272.297836 140.121231 
L 272.423147 140.628878 
L 272.211809 141.696946 
L 271.995589 142.076649 
L 271.962131 142.673077 
L 271.819053 143.013845 
L 271.527344 143.217929 
L 271.337937 143.552388 
L 270.844223 143.89958 
L 270.450967 145.338995 
L 271.011923 146.418066 
L 271.04938 146.381763 
L 271.218012 146.730151 
L 270.883149 146.856401 
L 270.718004 147.920793 
L 270.361327 148.038259 
L 270.160806 148.045286 
L 270.154686 148.244523 
L 270.010724 148.172372 
L 269.970151 147.992178 
L 269.907017 148.14248 
L 269.951981 148.426648 
L 269.824152 148.49775 
L 270.08155 149.056222 
L 269.988788 149.442306 
L 269.988788 149.442306 
" style="fill:none;stroke:#ff0000;stroke-linecap:square;"/>
   </g>
   <g id="line2d_21">
    <path clip-path="url(#pd67f5d9845)" d="M 265.471545 248.790606 
L 270.616061 223.163761 
L 258.461906 205.580903 
L 251.61415 187.81079 
L 245.310775 169.422629 
L 238.604961 160.552283 
L 235.771662 153.676674 
L 235.435091 147.239563 
L 235.437059 143.426921 
L 234.787627 142.926696 
L 234.600464 143.269383 
L 237.264171 144.800602 
L 240.328062 145.58236 
L 245.215109 146.965143 
L 251.567423 147.85554 
L 258.867338 149.657798 
L 270.271858 152.792677 
L 271.671225 153.433613 
L 274.141035 153.558946 
L 275.255583 154.374895 
L 280.177244 156.063895 
L 286.36014 157.364847 
L 292.903688 158.586435 
L 294.289249 159.325142 
L 293.951003 160.456422 
L 290.80348 162.529396 
L 288.091669 164.609571 
L 283.525068 166.476581 
L 272.604255 170.136807 
L 255.853101 177.105442 
L 220.15194 193.802041 
L 207.713348 198.591109 
L 199.010475 202.451429 
L 193.417287 203.642546 
L 189.989464 203.292359 
L 187.139728 202.753858 
L 184.959609 201.255516 
L 182.631472 197.9494 
L 180.980101 194.897005 
L 180.360708 195.614835 
L 179.32135 195.943521 
L 177.587319 195.147605 
L 176.319833 195.269657 
L 174.948689 195.789206 
L 174.560352 195.645933 
L 173.606685 196.021163 
L 172.866237 196.439897 
L 172.044125 195.748985 
L 170.787616 195.490477 
L 168.69991 194.019806 
L 166.651127 191.37683 
L 165.350744 189.147192 
L 165.02475 188.166399 
L 163.925538 186.972356 
L 163.0171 186.229223 
L 162.077543 185.627177 
L 161.910655 185.158346 
L 162.599827 184.842076 
L 162.633765 184.30351 
L 161.847431 183.541272 
L 162.15771 183.435315 
L 161.916475 183.025365 
L 160.911374 182.735052 
L 160.10419 182.699927 
L 158.807146 181.460416 
L 157.347593 181.880763 
L 156.365519 181.82128 
L 155.71544 182.524108 
L 154.881628 182.557693 
L 154.759045 183.147296 
L 154.338908 184.22302 
L 154.186621 185.154484 
L 154.612631 186.412737 
L 154.739547 187.418335 
L 154.777801 188.762479 
L 154.924147 189.031496 
L 154.549654 189.583664 
L 154.669838 190.06251 
L 155.422169 190.932784 
L 156.447111 191.714076 
L 158.463061 194.621012 
L 159.045063 194.93111 
L 159.536069 195.675459 
L 160.553246 196.191089 
L 161.085677 196.018469 
L 162.032634 195.975589 
L 162.56022 195.415799 
L 163.68161 195.119419 
L 164.912174 194.984558 
L 165.538429 195.157889 
L 166.400134 194.942739 
L 167.269493 195.071908 
L 168.080605 194.766917 
L 168.680499 194.405145 
L 168.896642 193.984419 
L 169.103642 193.186892 
L 169.394223 192.913258 
L 169.32952 192.713996 
L 169.393002 193.126779 
L 169.480579 194.073876 
L 169.450764 194.817883 
L 169.546632 195.400965 
L 169.705468 195.540892 
L 169.684552 195.273934 
L 169.323189 195.316384 
L 169.370748 195.271147 
L 169.578599 194.9039 
L 169.430211 194.793356 
L 168.943419 195.495132 
L 168.496336 195.703515 
L 168.170616 195.892396 
L 168.023486 195.764408 
L 167.92779 195.49654 
L 168.548042 195.445895 
L 169.735132 195.852756 
L 170.034795 195.509279 
L 170.238459 195.575849 
L 170.575352 195.37548 
L 170.910457 195.347672 
L 171.215596 195.620419 
L 171.845787 195.709348 
L 173.038577 194.552996 
L 173.018496 194.265288 
L 173.128506 194.016025 
L 172.956518 193.840715 
L 172.830036 193.302962 
L 172.833992 193.516757 
L 171.361114 191.114296 
L 171.361114 191.114296 
" style="fill:none;stroke:#00ff00;stroke-linecap:square;"/>
   </g>
   <g id="line2d_22">
    <path clip-path="url(#pd67f5d9845)" d="M 302.670349 125.907902 
L 293.969363 118.602772 
L 303.206787 111.424784 
L 305.489602 111.598679 
L 301.626209 125.039399 
L 297.460085 129.091957 
L 292.167911 135.946773 
L 291.109877 139.232241 
L 290.605109 137.531257 
L 290.190351 140.902439 
L 290.500897 139.21223 
L 289.071438 140.321315 
L 289.071257 139.461917 
L 287.077509 138.388664 
L 284.604703 138.559024 
L 280.302673 134.313103 
L 277.694529 138.714971 
L 275.198126 137.87854 
L 274.088253 134.528462 
L 273.438686 134.123029 
L 274.257847 131.720592 
L 278.944776 142.825111 
L 276.972865 143.462597 
L 276.823276 141.290057 
L 279.846427 142.191894 
L 275.256259 141.330937 
L 253.25597 126.820309 
L 250.817555 124.551268 
L 249.961741 124.254768 
L 249.251269 126.10625 
L 248.421793 125.68611 
L 247.742783 125.595898 
L 248.363735 124.3148 
L 248.270157 123.394217 
L 248.967066 123.734367 
L 247.807943 119.942117 
L 247.106492 118.586194 
L 252.203216 107.293282 
L 251.720013 108.193501 
L 252.049213 109.221901 
L 251.743981 108.075711 
L 250.828394 110.6502 
L 251.344379 112.08148 
L 252.383357 110.300978 
L 252.190575 110.696494 
L 252.189106 109.92527 
L 251.567861 110.765068 
L 252.111416 112.186466 
L 251.984891 113.023801 
L 253.288929 111.996494 
L 252.233789 113.109018 
L 251.515209 111.324075 
L 251.948599 115.649244 
L 251.285866 118.064047 
L 250.69157 114.50275 
L 252.325186 114.913706 
L 250.966393 112.787763 
L 259.094639 106.657568 
L 259.984715 108.39775 
L 259.491094 109.595751 
L 258.461836 109.169607 
L 257.830431 111.400486 
L 257.18455 112.439307 
L 258.280257 110.977784 
L 258.423925 110.334985 
L 258.957704 109.888784 
L 258.747798 110.613056 
L 259.240186 113.403523 
L 259.542721 112.586228 
L 260.449289 112.934081 
L 259.721737 113.077022 
L 258.937703 110.330063 
L 259.013194 115.04728 
L 258.674689 116.583114 
L 258.954197 115.336205 
L 259.751763 114.092257 
L 257.656426 113.361315 
L 262.593893 101.900948 
L 263.650946 103.414183 
L 263.694988 104.015753 
L 262.751671 105.074144 
L 261.773532 107.058244 
L 262.032873 110.268111 
L 262.768422 108.640114 
L 263.240546 109.125073 
L 263.004248 108.626629 
L 262.615231 108.382853 
L 263.130179 111.681482 
L 263.009835 110.648629 
L 263.96898 112.444752 
L 263.372026 111.373169 
L 263.499845 109.864317 
L 263.890607 113.789944 
L 263.25692 114.289079 
L 263.020036 112.950669 
L 264.501404 112.125857 
L 261.870333 111.076069 
L 266.406044 105.616199 
L 267.432412 108.490831 
L 267.147715 109.54094 
L 266.335976 109.915932 
L 265.265844 111.854099 
L 265.382357 113.800921 
L 266.418564 111.982213 
L 267.024575 112.666715 
L 266.710121 111.255888 
L 266.651362 111.759318 
L 267.351437 115.908432 
L 267.612404 114.08678 
L 268.028876 115.887808 
L 267.670829 114.291033 
L 267.717463 112.43052 
L 268.440358 116.953136 
L 266.993398 116.548066 
L 267.47033 116.350846 
L 269.056494 115.241365 
L 266.444954 114.055298 
L 267.805688 114.269826 
L 268.511334 116.80545 
L 268.59841 118.525 
L 267.125421 119.211073 
L 268.030081 120.865277 
L 267.811844 119.926 
L 268.009569 118.347284 
L 269.595547 117.550824 
L 268.634924 116.633208 
L 269.365488 119.200683 
L 269.596087 120.802755 
L 269.279089 118.084695 
L 269.3047 119.698627 
L 269.294468 118.883573 
L 270.082942 116.576949 
L 270.709193 119.339979 
L 269.041112 120.463784 
L 270.264904 121.468822 
L 272.011841 120.92314 
L 269.454117 118.419159 
L 268.294713 118.157528 
L 268.466561 119.904302 
L 268.835583 120.624861 
L 267.824516 122.052157 
L 267.909364 125.744071 
L 268.349985 126.155974 
L 268.36004 126.340627 
L 269.63901 126.420295 
L 269.567031 124.438353 
L 269.797428 126.447644 
L 269.797428 126.447644 
" style="fill:none;stroke:#0000ff;stroke-linecap:square;"/>
   </g>
   <g id="line2d_23">
    <path clip-path="url(#pd67f5d9845)" d="M 265.471545 248.790606 
L 270.616059 223.163763 
L 265.339582 206.582502 
L 260.214832 195.007144 
L 245.680014 175.461665 
L 238.626317 162.70291 
L 231.074498 156.927904 
L 230.578217 152.36414 
L 227.70644 148.063871 
L 228.126686 150.753121 
L 226.635349 148.933868 
L 228.065356 149.067266 
L 227.481809 151.207194 
L 229.683218 152.109164 
L 235.057642 151.024194 
L 240.52569 149.495514 
L 246.734565 156.918463 
L 253.695888 157.462289 
L 256.609331 157.298289 
L 256.189983 157.986234 
L 258.176307 156.436683 
L 264.164158 164.338737 
L 264.043594 165.197492 
L 265.140795 164.871698 
L 263.927527 162.826659 
L 262.795382 165.757682 
L 271.126072 168.216515 
L 280.545146 166.758545 
L 283.949171 167.547086 
L 286.779741 168.763214 
L 285.200091 164.327748 
L 286.280066 167.843901 
L 284.947411 169.175975 
L 284.526176 172.200178 
L 278.507364 179.800313 
L 263.396879 190.522757 
L 248.44221 199.930775 
L 231.111605 213.44779 
L 224.624114 223.126442 
L 216.582971 227.372981 
L 210.044073 229.647497 
L 206.473244 231.721768 
L 204.899864 236.142933 
L 201.8883 236.150631 
L 199.871503 235.054698 
L 199.746208 232.677961 
L 199.164552 232.530125 
L 201.277604 236.516697 
L 198.56077 234.52208 
L 199.642347 239.235771 
L 197.613106 237.93276 
L 198.44718 236.530219 
L 196.388406 236.510244 
L 198.966379 240.7886 
L 200.171559 240.93914 
L 199.027935 239.801746 
L 198.424264 241.548202 
L 200.56696 239.144554 
L 198.945638 241.207717 
L 193.559044 239.442283 
L 195.03902 240.913944 
L 188.241878 236.684153 
L 187.744881 241.530202 
L 185.156751 242.112107 
L 185.982453 243.502538 
L 185.3317 243.136267 
L 187.020069 242.42849 
L 187.065261 244.882615 
L 185.787799 244.291539 
L 186.114125 247.483437 
L 183.952859 247.272029 
L 185.509398 247.126372 
L 181.464647 248.491064 
L 184.115107 249.435589 
L 184.455146 249.955693 
L 180.565448 248.560263 
L 181.997114 250.150925 
L 183.467859 250.098637 
L 183.52309 248.398798 
L 178.539382 250.114583 
L 180.083834 249.582158 
L 176.76245 231.471192 
L 175.726171 233.171716 
L 172.8544 232.626281 
L 174.355856 231.842272 
L 175.008995 229.168854 
L 175.87039 229.2934 
L 176.775394 231.006672 
L 175.627946 230.897679 
L 177.393697 234.042261 
L 175.756956 234.327778 
L 176.547779 232.851929 
L 173.618197 229.698879 
L 175.935821 230.115428 
L 177.045913 231.811874 
L 172.184713 225.585254 
L 173.7552 227.106413 
L 172.910707 226.349978 
L 172.320632 224.321698 
L 168.616403 224.228156 
L 169.656385 222.633616 
L 169.125458 211.679707 
L 168.685616 214.359314 
L 166.116587 214.490967 
L 166.426567 213.537489 
L 166.753792 214.039772 
L 167.366724 213.667845 
L 166.472174 211.806603 
L 166.474885 213.687359 
L 165.044875 212.533513 
L 164.281271 209.902942 
L 161.270661 209.731015 
L 163.224566 209.909467 
L 164.093886 212.709811 
L 160.630828 210.417602 
L 164.182842 210.940476 
L 162.537265 212.068801 
L 161.617097 210.183553 
L 157.544808 210.936052 
L 158.734152 210.586318 
L 165.872824 193.173868 
L 164.825768 193.238687 
L 163.324102 190.308159 
L 161.197114 190.148153 
L 160.189779 191.539863 
L 158.272118 193.185733 
L 155.726877 192.52546 
L 155.688283 193.724939 
L 152.623425 196.701058 
L 150.938797 194.817404 
L 150.829032 192.467085 
L 146.55766 193.685929 
L 148.075411 194.646401 
L 146.683394 197.539311 
L 142.110728 194.908402 
L 144.307652 196.386768 
L 141.471957 198.838285 
L 141.354616 194.999168 
L 139.747911 195.565919 
L 141.561012 195.340709 
L 158.630759 181.909003 
L 159.392906 182.192962 
L 159.37446 182.765189 
L 157.94697 180.002256 
L 159.596845 179.591742 
L 160.211772 180.243896 
L 159.805998 179.420739 
L 159.612544 177.787692 
L 158.315995 178.295145 
L 156.572514 175.326724 
L 156.572514 175.326724 
" style="fill:none;stroke:#000000;stroke-linecap:square;"/>
   </g>
   <g id="legend_1">
    <g id="patch_6">
     <path d="M 258.920687 108.1845 
L 362.216 108.1845 
Q 364.216 108.1845 364.216 106.1845 
L 364.216 48.472 
Q 364.216 46.472 362.216 46.472 
L 258.920687 46.472 
Q 256.920687 46.472 256.920687 48.472 
L 256.920687 106.1845 
Q 256.920687 108.1845 258.920687 108.1845 
z
" style="fill:#ffffff;opacity:0.8;stroke:#cccccc;stroke-linejoin:miter;"/>
    </g>
    <g id="line2d_24">
     <path d="M 260.920687 54.570438 
L 280.920687 54.570438 
" style="fill:none;stroke:#ff0000;stroke-linecap:square;"/>
    </g>
    <g id="line2d_25"/>
    <g id="text_20">
     <!-- with TE (left) -->
     <g transform="translate(288.920687 58.070438)scale(0.1 -0.1)">
      <defs>
       <path d="M 269 3500 
L 844 3500 
L 1563 769 
L 2278 3500 
L 2956 3500 
L 3675 769 
L 4391 3500 
L 4966 3500 
L 4050 0 
L 3372 0 
L 2619 2869 
L 1863 0 
L 1184 0 
L 269 3500 
z
" id="DejaVuSans-77" transform="scale(0.015625)"/>
       <path d="M 3513 2113 
L 3513 0 
L 2938 0 
L 2938 2094 
Q 2938 2591 2744 2837 
Q 2550 3084 2163 3084 
Q 1697 3084 1428 2787 
Q 1159 2491 1159 1978 
L 1159 0 
L 581 0 
L 581 4863 
L 1159 4863 
L 1159 2956 
Q 1366 3272 1645 3428 
Q 1925 3584 2291 3584 
Q 2894 3584 3203 3211 
Q 3513 2838 3513 2113 
z
" id="DejaVuSans-68" transform="scale(0.015625)"/>
       <path d="M -19 4666 
L 3928 4666 
L 3928 4134 
L 2272 4134 
L 2272 0 
L 1638 0 
L 1638 4134 
L -19 4134 
L -19 4666 
z
" id="DejaVuSans-54" transform="scale(0.015625)"/>
       <path d="M 628 4666 
L 3578 4666 
L 3578 4134 
L 1259 4134 
L 1259 2753 
L 3481 2753 
L 3481 2222 
L 1259 2222 
L 1259 531 
L 3634 531 
L 3634 0 
L 628 0 
L 628 4666 
z
" id="DejaVuSans-45" transform="scale(0.015625)"/>
       <path d="M 1984 4856 
Q 1566 4138 1362 3434 
Q 1159 2731 1159 2009 
Q 1159 1288 1364 580 
Q 1569 -128 1984 -844 
L 1484 -844 
Q 1016 -109 783 600 
Q 550 1309 550 2009 
Q 550 2706 781 3412 
Q 1013 4119 1484 4856 
L 1984 4856 
z
" id="DejaVuSans-28" transform="scale(0.015625)"/>
       <path d="M 603 4863 
L 1178 4863 
L 1178 0 
L 603 0 
L 603 4863 
z
" id="DejaVuSans-6c" transform="scale(0.015625)"/>
       <path d="M 3597 1894 
L 3597 1613 
L 953 1613 
Q 991 1019 1311 708 
Q 1631 397 2203 397 
Q 2534 397 2845 478 
Q 3156 559 3463 722 
L 3463 178 
Q 3153 47 2828 -22 
Q 2503 -91 2169 -91 
Q 1331 -91 842 396 
Q 353 884 353 1716 
Q 353 2575 817 3079 
Q 1281 3584 2069 3584 
Q 2775 3584 3186 3129 
Q 3597 2675 3597 1894 
z
M 3022 2063 
Q 3016 2534 2758 2815 
Q 2500 3097 2075 3097 
Q 1594 3097 1305 2825 
Q 1016 2553 972 2059 
L 3022 2063 
z
" id="DejaVuSans-65" transform="scale(0.015625)"/>
       <path d="M 2375 4863 
L 2375 4384 
L 1825 4384 
Q 1516 4384 1395 4259 
Q 1275 4134 1275 3809 
L 1275 3500 
L 2222 3500 
L 2222 3053 
L 1275 3053 
L 1275 0 
L 697 0 
L 697 3053 
L 147 3053 
L 147 3500 
L 697 3500 
L 697 3744 
Q 697 4328 969 4595 
Q 1241 4863 1831 4863 
L 2375 4863 
z
" id="DejaVuSans-66" transform="scale(0.015625)"/>
       <path d="M 513 4856 
L 1013 4856 
Q 1481 4119 1714 3412 
Q 1947 2706 1947 2009 
Q 1947 1309 1714 600 
Q 1481 -109 1013 -844 
L 513 -844 
Q 928 -128 1133 580 
Q 1338 1288 1338 2009 
Q 1338 2731 1133 3434 
Q 928 4138 513 4856 
z
" id="DejaVuSans-29" transform="scale(0.015625)"/>
      </defs>
      <use xlink:href="#DejaVuSans-77"/>
      <use x="81.787109" xlink:href="#DejaVuSans-69"/>
      <use x="109.570312" xlink:href="#DejaVuSans-74"/>
      <use x="148.779297" xlink:href="#DejaVuSans-68"/>
      <use x="212.158203" xlink:href="#DejaVuSans-20"/>
      <use x="243.945312" xlink:href="#DejaVuSans-54"/>
      <use x="305.029297" xlink:href="#DejaVuSans-45"/>
      <use x="368.212891" xlink:href="#DejaVuSans-20"/>
      <use x="400" xlink:href="#DejaVuSans-28"/>
      <use x="439.013672" xlink:href="#DejaVuSans-6c"/>
      <use x="466.796875" xlink:href="#DejaVuSans-65"/>
      <use x="528.320312" xlink:href="#DejaVuSans-66"/>
      <use x="561.775391" xlink:href="#DejaVuSans-74"/>
      <use x="600.984375" xlink:href="#DejaVuSans-29"/>
     </g>
    </g>
    <g id="line2d_26">
     <path d="M 260.920687 69.248563 
L 280.920687 69.248563 
" style="fill:none;stroke:#00ff00;stroke-linecap:square;"/>
    </g>
    <g id="line2d_27"/>
    <g id="text_21">
     <!-- with TE (right) -->
     <g transform="translate(288.920687 72.748563)scale(0.1 -0.1)">
      <defs>
       <path d="M 2631 2963 
Q 2534 3019 2420 3045 
Q 2306 3072 2169 3072 
Q 1681 3072 1420 2755 
Q 1159 2438 1159 1844 
L 1159 0 
L 581 0 
L 581 3500 
L 1159 3500 
L 1159 2956 
Q 1341 3275 1631 3429 
Q 1922 3584 2338 3584 
Q 2397 3584 2469 3576 
Q 2541 3569 2628 3553 
L 2631 2963 
z
" id="DejaVuSans-72" transform="scale(0.015625)"/>
       <path d="M 2906 1791 
Q 2906 2416 2648 2759 
Q 2391 3103 1925 3103 
Q 1463 3103 1205 2759 
Q 947 2416 947 1791 
Q 947 1169 1205 825 
Q 1463 481 1925 481 
Q 2391 481 2648 825 
Q 2906 1169 2906 1791 
z
M 3481 434 
Q 3481 -459 3084 -895 
Q 2688 -1331 1869 -1331 
Q 1566 -1331 1297 -1286 
Q 1028 -1241 775 -1147 
L 775 -588 
Q 1028 -725 1275 -790 
Q 1522 -856 1778 -856 
Q 2344 -856 2625 -561 
Q 2906 -266 2906 331 
L 2906 616 
Q 2728 306 2450 153 
Q 2172 0 1784 0 
Q 1141 0 747 490 
Q 353 981 353 1791 
Q 353 2603 747 3093 
Q 1141 3584 1784 3584 
Q 2172 3584 2450 3431 
Q 2728 3278 2906 2969 
L 2906 3500 
L 3481 3500 
L 3481 434 
z
" id="DejaVuSans-67" transform="scale(0.015625)"/>
      </defs>
      <use xlink:href="#DejaVuSans-77"/>
      <use x="81.787109" xlink:href="#DejaVuSans-69"/>
      <use x="109.570312" xlink:href="#DejaVuSans-74"/>
      <use x="148.779297" xlink:href="#DejaVuSans-68"/>
      <use x="212.158203" xlink:href="#DejaVuSans-20"/>
      <use x="243.945312" xlink:href="#DejaVuSans-54"/>
      <use x="305.029297" xlink:href="#DejaVuSans-45"/>
      <use x="368.212891" xlink:href="#DejaVuSans-20"/>
      <use x="400" xlink:href="#DejaVuSans-28"/>
      <use x="439.013672" xlink:href="#DejaVuSans-72"/>
      <use x="480.126953" xlink:href="#DejaVuSans-69"/>
      <use x="507.910156" xlink:href="#DejaVuSans-67"/>
      <use x="571.386719" xlink:href="#DejaVuSans-68"/>
      <use x="634.765625" xlink:href="#DejaVuSans-74"/>
      <use x="673.974609" xlink:href="#DejaVuSans-29"/>
     </g>
    </g>
    <g id="line2d_28">
     <path d="M 260.920687 83.926688 
L 280.920687 83.926688 
" style="fill:none;stroke:#0000ff;stroke-linecap:square;"/>
    </g>
    <g id="line2d_29"/>
    <g id="text_22">
     <!-- no TE (left) -->
     <g transform="translate(288.920687 87.426688)scale(0.1 -0.1)">
      <use xlink:href="#DejaVuSans-6e"/>
      <use x="63.378906" xlink:href="#DejaVuSans-6f"/>
      <use x="124.560547" xlink:href="#DejaVuSans-20"/>
      <use x="156.347656" xlink:href="#DejaVuSans-54"/>
      <use x="217.431641" xlink:href="#DejaVuSans-45"/>
      <use x="280.615234" xlink:href="#DejaVuSans-20"/>
      <use x="312.402344" xlink:href="#DejaVuSans-28"/>
      <use x="351.416016" xlink:href="#DejaVuSans-6c"/>
      <use x="379.199219" xlink:href="#DejaVuSans-65"/>
      <use x="440.722656" xlink:href="#DejaVuSans-66"/>
      <use x="474.177734" xlink:href="#DejaVuSans-74"/>
      <use x="513.386719" xlink:href="#DejaVuSans-29"/>
     </g>
    </g>
    <g id="line2d_30">
     <path d="M 260.920687 98.604813 
L 280.920687 98.604813 
" style="fill:none;stroke:#000000;stroke-linecap:square;"/>
    </g>
    <g id="line2d_31"/>
    <g id="text_23">
     <!-- no TE (right) -->
     <g transform="translate(288.920687 102.104813)scale(0.1 -0.1)">
      <use xlink:href="#DejaVuSans-6e"/>
      <use x="63.378906" xlink:href="#DejaVuSans-6f"/>
      <use x="124.560547" xlink:href="#DejaVuSans-20"/>
      <use x="156.347656" xlink:href="#DejaVuSans-54"/>
      <use x="217.431641" xlink:href="#DejaVuSans-45"/>
      <use x="280.615234" xlink:href="#DejaVuSans-20"/>
      <use x="312.402344" xlink:href="#DejaVuSans-28"/>
      <use x="351.416016" xlink:href="#DejaVuSans-72"/>
      <use x="392.529297" xlink:href="#DejaVuSans-69"/>
      <use x="420.3125" xlink:href="#DejaVuSans-67"/>
      <use x="483.789062" xlink:href="#DejaVuSans-68"/>
      <use x="547.167969" xlink:href="#DejaVuSans-74"/>
      <use x="586.376953" xlink:href="#DejaVuSans-29"/>
     </g>
    </g>
   </g>
  </g>
 </g>
 <defs>
  <clipPath id="pd67f5d9845">
   <rect height="266.112" width="266.112" x="103.104" y="41.472"/>
  </clipPath>
 </defs>
</svg>
